<svg viewBox="0 0 63.5 48.29" xmlns="http://www.w3.org/2000/svg"><path d="m63.5 6v36.26a3.17 3.17 0 0 0 -.2.51c-1.13 4.13-2.94 5.52-7.15 5.52h-49.15c-4.1 0-6.93-2.61-6.95-6.71q-.11-17.35 0-34.71a6.7 6.7 0 0 1 7.04-6.87c7.5.19 15 .21 22.52.21 9 0 17.94 0 26.91-.12a6.19 6.19 0 0 1 6.22 3.8c.31.68.51 1.4.76 2.11zm-4.91 2.87c-.61.52-.94.78-1.25 1.06q-10.75 9.84-21.51 19.69a5.94 5.94 0 0 1 -8.7-.13l-21.08-20.37c-.29-.28-.61-.52-1.14-1v32.4a7.93 7.93 0 0 0 .06 1 1.9 1.9 0 0 0 2.22 1.92q24.57-.08 49.15 0a1.92 1.92 0 0 0 2.2-2 9.08 9.08 0 0 0 .05-1.28zm-3.59-3.48-.14-.32h-45.81c.23.28.33.44.46.57q10.49 10.11 21 20.24c.92.89 1.52.54 2.27-.15 4.37-4 8.77-8 13.15-12z" fill="#5b5b5b"/></svg>