<svg viewBox="0 0 160.34 160.34" xmlns="http://www.w3.org/2000/svg"><circle cx="80.17" cy="80.17" fill="#bc0000" r="80.17"/><g fill="#fff"><path d="m120.54 30.54c3 1.65 3.69 4.6 4.12 7.57s.54 6.12.83 9.58h-8.2c0 6 .2 11.74 0 17.42-.53 12.87-1.11 25.76-4.85 38.23a33.58 33.58 0 0 1 -2 5 7.7 7.7 0 0 1 -8.07 4.78c-3.53-.21-7.09 0-10.63-.11-1.65-.07-2.13.69-2.61 2-1.37 3.91-3.61 5.61-7.71 5.63-15.72 0-31.44 0-47.16 0a10.47 10.47 0 0 1 -1.21-.17c-.3-1.91-.55-3.45 2.12-4 .94-.19 1.91-1.66 2.31-2.75a15.32 15.32 0 0 0 .66-4.55c.11-2.36 0-4.73.08-7.09.24-6.24 2.21-8.08 8.48-8.08h15.44c.53-3.86 1.32-7.66 1.52-11.5.73-14 1.27-28.11 1.88-42.17 0-1.18.15-2.35.27-3.52a6.89 6.89 0 0 1 4.51-6.23zm-54.32 63.46h2.63 22.64c5.1 0 7.05 1.92 7.22 7.05v3.54c0 2.15.51 4 3 4.57s4.3-.18 5.36-2.48a34.58 34.58 0 0 0 2-5c3-10.73 3.74-21.81 4.23-32.86.5-11.39.54-22.79.79-34.38-14 0-28 0-42 .08a3.28 3.28 0 0 0 -2.24 1.78 9.14 9.14 0 0 0 -.49 3.45c-.36 11.19-.58 22.45-1.17 33.7-.35 6.76-1.28 13.49-1.97 20.55zm-25.08 23c-.23 0 0 .06.28.06 13.07 0 26.14.06 39.21 0 3.37 0 5.07-1.41 5.29-4.94.3-4.74.08-9.5.08-14.43-13.45 0-27.33 0-41.21.09a3.43 3.43 0 0 0 -2.39 1.94 13.5 13.5 0 0 0 -.43 4c-.28 4.34-.54 8.65-.83 13.28zm54.16-7.84c-.15-3-.14-5.92-.53-8.76-.13-1-1.28-1.79-2-2.67-.83.76-2.3 1.47-2.38 2.31-.29 3-.12 6.06-.12 9.12zm24.64-74.76-1.14.09c-2.13 2.91-1.28 6.18-1.17 9.41h4.08c-.62-3.35-1.19-6.43-1.77-9.5z"/><path d="m90.51 74.73c-4.08 0-8.17.13-12.24-.08-1-.06-2.79-1.12-2.88-1.87-.2-1.77 1.45-1.88 2.9-1.88 8.25 0 16.51 0 24.76.1 1 0 2.55 1 2.69 1.72.36 1.89-1.26 2-2.71 2-4.17 0-8.35 0-12.52 0z"/><path d="m88.6 90.07h-12.51c-1.39 0-2.89-.23-2.54-1.9a3.43 3.43 0 0 1 2.63-1.88q12.51-.21 25 0c1 0 2.66 1.09 2.74 1.81.19 1.7-1.32 2-2.83 2-4.09-.1-8.32-.03-12.49-.03z"/><path d="m89.7 63.23c3.9 0 7.81-.13 11.7.09.93 0 1.8 1.25 2.7 1.92-.88.63-1.74 1.77-2.63 1.79q-11.7.21-23.41 0c-1 0-1.87-1.2-2.81-1.85.92-.64 1.8-1.79 2.75-1.84 3.89-.21 7.8-.09 11.7-.09z"/><path d="m88.78 82.39c-3.64 0-7.28.11-10.91-.08-.9 0-1.74-1.11-2.61-1.71.89-.67 1.76-1.9 2.67-1.92q10.77-.23 21.54 0a3.16 3.16 0 0 1 2.44 1.75c.33 1.67-1.08 2-2.49 2-3.55-.06-7.1-.04-10.64-.04z"/><path d="m93.51 55.6c3.26 0 6.53-.12 9.78.08a3.22 3.22 0 0 1 2.47 1.64c.35 1.65-1 2-2.45 2-6.53 0-13.06.09-19.58-.08-.88 0-1.72-1.29-2.58-2 .86-.57 1.68-1.57 2.57-1.62 3.28-.14 6.52-.02 9.79-.02z"/><path d="m82.82 51.51a18.54 18.54 0 0 1 -4-.09 2.37 2.37 0 0 1 -1.39-1.84 2.33 2.33 0 0 1 1.65-1.58 54.5 54.5 0 0 1 7.56 0c.65 0 1.81 1.06 1.75 1.45a2.83 2.83 0 0 1 -1.55 2 16.8 16.8 0 0 1 -4 .09z"/></g></svg>