<svg viewBox="0 0 140.08 124.07" xmlns="http://www.w3.org/2000/svg"><g fill="#5b5b5b"><path d="m70.4 0h44.47s25.13 10.2 25.13 25.15q.1 37 0 74c0 14.59-10.23 24.85-24.84 24.85q-45.22.1-90.45 0c-14.31 0-24.59-10.33-24.64-24.6q-.13-37.49 0-75c.07-13.96 10.37-24.23 24.35-24.34 15.33-.12 30.65-.06 45.98-.06zm-.55 4c-14.85 0-29.65 0-44.47 0-13 0-21.29 8.3-21.32 21.2q-.06 36.8 0 73.5c0 13 8.3 21.29 21.2 21.31q44.73.08 89.44 0c13 0 21.3-8.3 21.33-21.2q.08-36.72 0-73.45c-.03-12.95-8.32-21.27-21.21-21.36-14.99 0-29.98 0-44.97 0z"/><path d="m12 72.84c5.52-5.6 10-10.19 14.51-14.74 13.49-13.61 11.59-13.51 25.2.15l24.42 24.51c5.88-6 11.42-11.66 17-17.27 4.69-4.69 7-4.7 11.71 0 7.42 7.37 14.77 14.81 23.15 23.23v-20.26l1.25-.13a11.78 11.78 0 0 1 .73 2.78c.05 9.49.15 19 0 28.48-.15 8.65-5.86 14.37-14.57 14.39q-45.48.15-90.94 0c-8.64 0-14.36-5.89-14.39-14.58q-.15-37.47 0-74.95c0-8.43 5.76-14.31 14.08-14.35 26.85-.1 53.67-.1 80.48-.05a3.68 3.68 0 0 1 3.06 1.66c-1.67.11-3.34.3-5 .31q-38 0-75.95 0c-10.25 0-14.66 4.37-14.68 14.5q-.06 20.27-.06 40.48zm89.75 39.16a9.6 9.6 0 0 0 -.76-1.51q-29.1-29.15-58.18-58.3c-2.71-2.73-5-2.61-7.62.08-7 7.13-14.13 14.1-21.09 21.25a7 7 0 0 0 -2 4.23c-.19 7.48-.24 15 0 22.45.18 6.57 4.83 11.66 11.28 11.7 25.95.19 51.87.1 78.37.1zm-24.49-27.89c7.48 7.38 15.1 13.92 21.48 21.5 5.12 6.09 11 7.2 18.06 6.37 4.87-.57 9.16-2.82 10.08-7.58.88-4.6 1.8-11.07-.6-14.07-7.14-8.91-15.8-16.64-24.16-24.52-1.13-1.06-4.8-1.21-5.89-.23-6.4 5.77-12.38 11.99-18.97 18.53z"/><path d="m92.08 37.18a10.67 10.67 0 0 1 10.86-11.11 11 11 0 0 1 .31 21.93 10.68 10.68 0 0 1 -11.17-10.82zm10.92 8.82a9 9 0 1 0 -.1-17.92 8.67 8.67 0 0 0 -8.84 9.26 8.65 8.65 0 0 0 8.94 8.66z"/></g></svg>