<svg viewBox="0 0 50.62 60.79" xmlns="http://www.w3.org/2000/svg"><path d="m23.25 0h4.05a3.58 3.58 0 0 0 .63.21 17.1 17.1 0 0 1 14.46 13.29c.64 3.13.43 6.43.59 9.66v2.19h1.67c3.85-.38 6 2.46 6 5.93-.15 7.79 0 15.58 0 23.37 0 3.55-.83 4.79-4.09 6.14h-42.49c-2.4-.86-4-2.37-4.05-5.08q-.02-12.71-.02-25.37a4.93 4.93 0 0 1 5-5h2.6c0-2.7-.08-5.21 0-7.72.29-7.39 3.7-12.84 10.43-16a36.45 36.45 0 0 1 5.22-1.62zm12.15 25.28c0-2.67 0-5.26 0-7.86a10 10 0 0 0 -6.91-9.34 10.13 10.13 0 0 0 -11.14 3.33c-3.39 4.24-1.81 9.17-2.23 13.87z" fill="#5b5b5b"/></svg>