<svg viewBox="0 0 104.35 101.81" xmlns="http://www.w3.org/2000/svg"><g fill="#fff"><path d="m79.24 101.6c-4.41 0-8.83 0-13.25.15-2.75.09-3.88-1-3.83-3.78.1-6.46 0-12.92 0-19.38-3.38-.78-6.78-.46-10.18-.17-.34 0-.68.08-1 .09-2.7.09-6.37-.86-7.88.52-1.95 1.8-.44 5.56-.69 8.46-.39 4.46.84 9-.68 13.39-.73-5.88-.14-11.75-.34-17.63 0-1 0-2.09 0-3.13-.06 7 0 14-.1 21.07-5.3 1.13-10.65.34-16 .41-1.56-.57-3.21 0-4.79-.36-1.65-.6-3.41-1.08-3.68-3.25q0-19.51 0-39a9.38 9.38 0 0 1 .25-3.69h-.05a2.91 2.91 0 0 0 2.06-2c1.7-2.18 4-3.68 6.05-5.47a3.11 3.11 0 0 0 2.15-2c4.48-4.12 8.68-8.55 13.5-12.3a3 3 0 0 0 2.16-2 86.43 86.43 0 0 1 8.94-8.17c1 .52 1.71 1.54 2.75 2.08 1.93 2 4.67 3 6.23 5.41.2 1.12 1.18 1.51 2 2.09l13.72 12.13c.2 1.12 1.18 1.52 2 2.1 3.59 2 5.89 5.42 8.84 8.13.65 1.17.32 2.44.32 3.65v36.3a10 10 0 0 0 .26 3.69c-.57 2-2.18 2.53-4 2.65a9.83 9.83 0 0 0 -4.76.01z"/><path d="m6.86 39.63c2.82-3.56 6.73-5.94 9.86-9.18 1.68-1.74 2.64-3.32 2.56-5.85-.2-6.46 0-12.92-.11-19.38 0-2.68.86-3.85 3.75-3.84 7.21 0 7.21-.07 7.21 7.2v9.33l14.87-13.07a3.53 3.53 0 0 0 2.17-2.1 5.78 5.78 0 0 1 3.46-2.49 5.58 5.58 0 0 0 3.31 0c.76.91 2.31.61 2.86 1.85.21 1.1 1.18 1.5 2 2.09 4.41 2.65 7.65 6.7 11.39 10.09 4.5 4.08 9.29 7.92 13.34 12.51 1.77 2 4.6 2.8 6 5.24a4.38 4.38 0 0 0 2 2.16c4.16 2.08 6.19 6.6 10.25 8.88 1.14.63 1.71 2.27 2.54 3.45a5.07 5.07 0 0 0 .07 3.31c-.28 2.5-2.28 3.49-4.07 4.66a8.37 8.37 0 0 0 -4 0c-3.37-1.16-5.32-4.12-7.81-6.34-6.87-6.1-13.51-12.41-20.31-18.65a3 3 0 0 0 -2.13-2 33.42 33.42 0 0 1 -6.07-5.5 3 3 0 0 0 -2.16-2c-1.9-1.5-3.78-4.11-5.72-4.16-1.73 0-3.53 2.75-5.31 4.28a8 8 0 0 1 -.83.56 4.9 4.9 0 0 0 -2.85 2.69 20.72 20.72 0 0 1 -4.63 4.13c-1 .38-1.89.86-2.13 2a38.67 38.67 0 0 1 -6 5.46 3.33 3.33 0 0 0 -2.22 2.1c-5.86 5.42-11.68 10.85-17.55 16.22a10.45 10.45 0 0 1 -2.34 1.25 4.83 4.83 0 0 0 -3.33.08c-5.36-1.96-6.52-6.61-2.64-10.61.77-.8 1.25-1.9 2.37-2.35a2.92 2.92 0 0 0 2.2-2.02z"/><path d="m17.11 55.26.07 43.74a.52.52 0 0 1 -.06.88c-.89-.65-.64-1.63-.64-2.49q0-20 0-40c-.01-.76-.26-1.63.63-2.13z"/><path d="m88 98.94c-1-1.06-.55-2.37-.55-3.57q-.06-20 0-40.07c.86.28.75 1 .75 1.67q-.14 21.03-.2 41.97z"/><path d="m41.29 101.19v-21.75h.42v21.45a.49.49 0 0 1 -.42.3z"/><path d="m52 78.42c3.4-.78 6.81-1.19 10.18.17z"/><path d="m17.12 99.86.06-.88 3.41 2c.23.12.31.25.23.37s-.15.19-.23.19a3.54 3.54 0 0 1 -3.47-1.68z"/><path d="m43.15 23.34c-.15-2.07 1.25-2.49 2.85-2.69z"/><path d="m54.67 25.35a3.25 3.25 0 0 1 -2.75-2.08c1.68-.27 2.08 1.04 2.75 2.08z"/><path d="m20.59 101.59v-.59c1.57.23 3.26-.55 4.73.57z"/><path d="m79.24 101.6a4.56 4.56 0 0 1 4.7 0z"/><path d="m58.75 4.22c-1.07-.31-2.46-.32-2-2.09.89.52 1.77 1 2 2.09z"/><path d="m57.86 20c1.18.19 2.72 0 2.16 2z"/><path d="m36.39 29.51c-.6-2.05 1-1.83 2.13-2z"/><path d="m66.07 27.46c1.16.21 2.71 0 2.13 2z"/><path d="m62.86 32.85c-1.09-.28-2.46-.31-2-2.09.87.54 1.75 1.02 2 2.09z"/><path d="m43 31.44c.54 2-1 1.82-2.16 2z"/><path d="m6.86 39.63c.53 2-1 1.84-2.2 2z"/><path d="m78.54 47.17c-1.1-.28-2.46-.32-2-2.1.87.54 1.75 1.02 2 2.1z"/><path d="m27.32 45.76c.53 2-1 1.83-2.15 2z"/><path d="m19.12 53.26c.56 2-.9 1.82-2.06 2a5 5 0 0 1 2.06-2z"/><path d="m96.3 54.52a3.53 3.53 0 0 1 4 0 7.37 7.37 0 0 1 -4 0z"/><path d="m53.94.28a2.55 2.55 0 0 1 -3.31 0 5.35 5.35 0 0 1 3.31 0z"/><path d="m47.13 2.74a1.85 1.85 0 0 1 -2.13 2.1z"/><path d="m91.49 34.22a1.9 1.9 0 0 1 -2-2.16c.81.57 1.74 1.05 2 2.16z"/><path d="m28.13 37.07a1.84 1.84 0 0 1 2.22-2.07z"/><path d="m104.35 49.86a2.48 2.48 0 0 1 -.07-3.31c.02 1.1.04 2.21.07 3.31z"/><path d="m4.93 54.61a2.46 2.46 0 0 1 3.33-.08 6.59 6.59 0 0 1 -3.33.08z"/><path d="m63.36 79.4v19.6h-.36v-19.62z"/></g></svg>