<svg viewBox="0 0 160.34 160.34" xmlns="http://www.w3.org/2000/svg"><circle cx="80.17" cy="80.17" fill="#bc0000" r="80.17"/><path d="m60.28 91.78-10.58-33.95c-1-3.11-2-6.22-2.91-9.35a2 2 0 0 0 -2.32-1.67c-1.74.07-3.49.09-5.22 0-2.06-.1-3.27-1.26-3.31-3a3.09 3.09 0 0 1 3.24-3.12c3.08-.09 6.16-.06 9.23 0 2.13 0 2.91 1.53 3.47 3.31 2.78 9 5.61 17.94 8.41 26.92 1.9 6.08 3.83 12.17 5.71 18.31a2.51 2.51 0 0 0 2.83 2.09q19.27-.09 38.55 0a2.36 2.36 0 0 0 2.73-2.14c2.65-10.82 5.36-21.63 8-32.44.08-.32.15-.65.26-1 .68-1.94 2-2.75 3.84-2.31a2.92 2.92 0 0 1 2.08 3.77c-1.2 5.2-2.49 10.38-3.78 15.56q-2.58 10.4-5.21 20.77c-.87 3.46-1.53 4-5.13 4-14.93 0-29.86 0-44.78.08a16.67 16.67 0 0 0 -4.7.75 3.83 3.83 0 0 0 -2.69 3.88 4.38 4.38 0 0 0 2.54 4c.8.45 1.45.49 2-.52 3.34-6.73 13.4-6.48 16.65.16a3 3 0 0 0 2.23 1.19c3.54.14 7.09.15 10.63.05a2.84 2.84 0 0 0 2-1.21c4.18-6.77 12.29-7 16.47-.29a2.81 2.81 0 0 0 2.92 1.53 40.81 40.81 0 0 1 4.82 0 3 3 0 1 1 0 6.08c-1.74.08-3.5-.1-5.22.09a3.08 3.08 0 0 0 -2.17 1.23c-3.23 6.63-13.34 6.78-16.56.27a3.74 3.74 0 0 0 -2.76-1.49 97 97 0 0 0 -10.23 0 3.6 3.6 0 0 0 -2.47 1.67c-4.07 6.44-12.77 6.29-16.36-.44-.77-1.44-1.93-1.66-3.17-2.08a10.7 10.7 0 0 1 -7.47-9.48 10.55 10.55 0 0 1 6.39-10.41c.61-.24 1.23-.47 2.04-.81zm42 14.92a3.52 3.52 0 0 0 -3.45 3.65 3.48 3.48 0 0 0 3.67 3.39 3.64 3.64 0 0 0 3.42-3.51 3.71 3.71 0 0 0 -3.61-3.53zm-31.67 0a3.52 3.52 0 1 0 .22 7 3.52 3.52 0 1 0 -.22-7z" fill="#f9f9f9"/></svg>