<svg viewBox="0 0 1578.16 2704.09" xmlns="http://www.w3.org/2000/svg" xmlns:xlink="http://www.w3.org/1999/xlink"><clipPath id="a" transform="translate(-.9)"><path d="m0 0h1441.79v2560h-1441.79z"/></clipPath><g clip-path="url(#a)"><path d="m1264.58 1896.38c-26.47 17.72-42.92 47.07-43.21 78.92-.42 46.09 5.44 128.55 34 266.16 40.38 194.47-282 330.63-421.75 380-20 7.07-19.29 35.64 1.06 41.64 156 46 553 124.19 661.75-228.75 87.85-285.14 88.56-448.32 78-528.27-5.54-41.88-40.2-73.56-82.34-76.48-54.04-3.77-135.83 5.4-227.51 66.78z" fill="#ec1c24" transform="translate(-.9)"/><path d="m1234 2123.21s407.23 525.75-316 465.66c96.55-43.92 167.79-88.12 215.24-120.76 9.52-6.55 57.13-39.34 88-84.54a212 212 0 0 0 36.36-93.83 137.86 137.86 0 0 0 1.36-13.78 127.16 127.16 0 0 0 -4.32-37.53c-4.25-17.39-6.68-35.18-10.29-52.71-2.96-14.94-6.91-36.2-10.35-62.51z" fill="#a60e13" transform="translate(-.9)"/></g></svg>