<svg viewBox="0 0 1680.76 2936.77" xmlns="http://www.w3.org/2000/svg">
	<clipPath id="prefix__a" transform="translate(101.71 232.68)">
		<path d="M0 0h1441.79v2560H0z" />
	</clipPath>
	<g clip-path="url(#prefix__a)">
		<path d="M315.33 809.29c26.3-18 42.47-47.48 42.46-79.33 0-46.09-6.66-128.49-36.54-265.82-42.22-194.08 278.89-333.29 418.13-384 19.94-7.25 19-35.82-1.46-41.63C581.51-5.95 183.71-80.38 78.37 273.58c-85.13 286-84.3 449.14-73 529 5.94 41.82 40.91 73.18 83.07 75.69 54.09 3.21 135.79-6.73 226.89-68.98z"
			fill="#909294" />
		<path d="M343.71 582.18S-68.46 60.31 655.27 113.55c-96.13 44.83-166.95 89.7-214.09 122.79-9.47 6.64-56.75 39.88-87.25 85.34a211.93 211.93 0 00-35.46 94.17 134.71 134.71 0 00-1.23 13.8 127.12 127.12 0 004.67 37.48c4.42 17.35 7 35.11 10.79 52.61 3.21 14.94 7.36 36.16 11.01 62.44z"
			fill="#58595b" />
	</g>
</svg>