<svg viewBox="0 0 160.34 160.34" xmlns="http://www.w3.org/2000/svg"><circle cx="80.17" cy="80.17" fill="#bc0000" r="80.17"/><g fill="#fff"><path d="m100.53 34.63h25.38a0 0 0 0 1 0 0v31.18a12.81 12.81 0 0 1 -12.81 12.81h-31.17a0 0 0 0 1 0 0v-25.38a18.6 18.6 0 0 1 18.6-18.61z"/><path d="m34.42 34.63h31.18a12.81 12.81 0 0 1 12.81 12.82v31.17a0 0 0 0 1 0 0h-25.41a18.6 18.6 0 0 1 -18.58-18.62v-25.37a0 0 0 0 1 0 0z" transform="matrix(-1 0 0 -1 112.83 113.25)"/><path d="m53 81.72h25.41a0 0 0 0 1 0 0v31.17a12.81 12.81 0 0 1 -12.81 12.82h-31.18a0 0 0 0 1 0 0v-25.39a18.6 18.6 0 0 1 18.58-18.6z" transform="matrix(-1 0 0 -1 112.83 207.43)"/><path d="m81.93 81.72h31.17a12.81 12.81 0 0 1 12.81 12.81v31.17a0 0 0 0 1 0 0h-25.38a18.6 18.6 0 0 1 -18.6-18.6v-25.38a0 0 0 0 1 0 0z"/></g></svg>