<svg viewBox="0 0 160.34 160.34" xmlns="http://www.w3.org/2000/svg"><circle cx="80.17" cy="80.17" fill="#bc0000" r="80.17"/><g fill="#f9f9f9"><path d="m102.4 77.41c7.62.88 13.36 4.3 17 10.83a21.08 21.08 0 0 1 -4.18 25.62 20.86 20.86 0 0 1 -25.84 2.06 6.22 6.22 0 0 0 -3.2-1c-12.83-.06-25.67-.2-38.51 0a9 9 0 0 1 -9.44-9.39c.17-20.61.07-41.23.07-61.85 0-6 3.34-9.38 9.39-9.38h45.37c5.93 0 9.32 3.36 9.33 9.26v31.51zm-18.71 33.12c-.48-.93-.76-1.5-1.06-2.07a20.9 20.9 0 0 1 13.54-30.36c1.57-.39 1.71-1.11 1.71-2.4 0-10.57 0-21.14 0-31.7 0-3.71-1.32-5-5.06-5h-44.94c-3.72 0-5 1.25-5 5.06q0 30.63 0 61.25c0 3.91 1.33 5.22 5.28 5.23h35.53zm33.86-12a16.4 16.4 0 1 0 -17 16.25 16.44 16.44 0 0 0 17-16.2z"/><path d="m70.3 52.6h-16.71c-2.19 0-3.14-.7-3.15-2.27s1-2.34 3.11-2.35h33.81c2 0 3.23.94 3.08 2.41-.17 1.81-1.42 2.23-3 2.22-5.74-.03-11.44-.01-17.14-.01z"/><path d="m70.3 64.24h17.1c1.63 0 2.86.42 3 2.22.15 1.47-1 2.38-3.08 2.38q-16.9 0-33.81 0c-2.18 0-3.12-.73-3.11-2.32s1-2.26 3.15-2.26z"/><path d="m63.92 80.59h10.68c1.56 0 2.72.46 2.76 2.24s-1.16 2.34-2.69 2.34q-10.77 0-21.55 0c-1.53 0-2.71-.61-2.66-2.37s1.23-2.22 2.78-2.21c3.56.01 7.12 0 10.68 0z"/><path d="m61.62 96.9h8.36c1.5 0 2.59.56 2.66 2.16s-1 2.41-2.62 2.42q-8.44 0-16.91 0c-1.55 0-2.7-.62-2.65-2.37s1.12-2.2 2.61-2.2z"/><path d="m98.15 100.67 7.57-7.74c.45-.46.9-.92 1.38-1.35 1.12-1 2.33-1.22 3.43-.06s.79 2.25-.21 3.26c-1.63 1.66-3.28 3.31-4.92 5s-3.45 3.51-5.22 5.21c-1.4 1.36-2.47 1.37-3.86 0s-2.95-2.9-4.39-4.38c-1.07-1.1-1.22-2.33-.08-3.41a2.11 2.11 0 0 1 3.26.18c.98.99 1.89 2.05 3.04 3.29z"/></g></svg>