<svg viewBox="0 0 327 89.59" xmlns="http://www.w3.org/2000/svg"><path d="m.44 44a4.93 4.93 0 0 1 .2-4.47l11-17.29a5 5 0 0 1 4-2.06l20.32.88c1.42.06 2 1.09 1.19 2.29l-11 17.29a5 5 0 0 0 -.2 4.47l9.45 18.33c.65 1.26 0 2.24-1.39 2.18l-20.32-.88a5 5 0 0 1 -3.77-2.4z" fill="#726547"/><path d="m38 63.56a1.36 1.36 0 0 1 -2.58-.12l-9.51-18.29a5 5 0 0 1 .2-4.47l11-17.29a1.36 1.36 0 0 1 2.58.11l9.53 18.37a5 5 0 0 1 -.22 4.47z" fill="#5a4a33"/><path d="m75.54.94a5 5 0 0 1 3.77 2.41l9.46 18.19a5 5 0 0 1 -.2 4.47l-10.93 17.15a1.36 1.36 0 0 1 -2.57-.11l-9.46-18.19a5 5 0 0 0 -3.77-2.41l-20.59-.94c-1.42-.06-2-1.1-1.19-2.29l10.94-17.15a5 5 0 0 1 4-2.07z" fill="#ec1c24"/><path d="m39.85 23.69c-.65-1.26 0-2.24 1.4-2.18l20.59.94a5 5 0 0 1 3.77 2.41l9.46 18.19c.65 1.25 0 2.23-1.39 2.17l-20.68-.94a5 5 0 0 1 -3.76-2.41z" fill="#a60e13"/><path d="m75.29 87.53a5 5 0 0 1 -4 2.06l-20.48-.9a5 5 0 0 1 -3.77-2.41l-9.39-18c-.65-1.28 0-2.28 1.42-2.21l20.48.9a4.93 4.93 0 0 0 4-2.06l11.08-17.36a1.36 1.36 0 0 1 2.58.12l9.39 18a4.91 4.91 0 0 1 -.2 4.46z" fill="#58595b"/><path d="m73.44 45.25c1.42.07 2 1.1 1.19 2.3l-11.11 17.36a4.93 4.93 0 0 1 -4 2.06l-20.48-.9c-1.42-.07-2-1.1-1.19-2.29l11.15-17.44a5 5 0 0 1 4-2.05z" fill="#909294"/><path d="m122.77 53.84-8.34-12.84-3.17 3.36v9.47h-6.61v-38.83l6.61-1.58v23l9.44-10.87h8l-9.57 10.74 11.53 17.59z" fill="#ec1c24"/><path d="m133.38 53.84v-22.91h-3.63v-5.42h10.32v28.33z" fill="#ec1c24"/><path d="m142.92 52 2.36-5.26a10.45 10.45 0 0 0 6.72 2.36c2.58 0 3.86-.91 3.86-2.75a3.39 3.39 0 0 0 -1.16-2.64 18.08 18.08 0 0 0 -4.52-2.44q-7.34-3-7.33-8.51a6.7 6.7 0 0 1 2.8-5.73 11.82 11.82 0 0 1 7.14-2.03 18.07 18.07 0 0 1 8.31 2l-1.91 5.14a9 9 0 0 0 -6-1.86q-3.47 0-3.46 2.76a2.45 2.45 0 0 0 1.13 2 23.67 23.67 0 0 0 4.87 2.34 12.47 12.47 0 0 1 5.37 3.56 8 8 0 0 1 1.64 5 7.42 7.42 0 0 1 -2.92 6.21 12.73 12.73 0 0 1 -7.95 2.26 17.84 17.84 0 0 1 -4.54-.47 21.44 21.44 0 0 1 -4.41-1.94z" fill="#ec1c24"/><path d="m190.47 41.7h-20.23a7.14 7.14 0 0 0 2.32 5.3 8.45 8.45 0 0 0 5.77 1.88q4.53 0 6.88-2.36l2.56 5.06q-3.48 2.82-10.42 2.83-6.48 0-10.25-3.8t-3.77-10.61a14.71 14.71 0 0 1 4.14-10.85 14.52 14.52 0 0 1 19.83-.47 12.61 12.61 0 0 1 3.7 9.32 18.62 18.62 0 0 1 -.53 3.7zm-20-5h13.92q-.69-6.21-6.88-6.21-5.65.02-7.04 6.23z" fill="#ec1c24"/><path d="m193.09 15 6.61-1.58v31.8q0 5.24 3.12 6.24a5.43 5.43 0 0 1 -5.24 2.91q-4.49 0-4.49-6.25z" fill="#ec1c24"/><text fill="#58595b" font-family="TrebuchetMS, Trebuchet MS" font-size="54.6" letter-spacing="-.06em" transform="translate(204.94 54)">group</text><g fill="#5a4a33"><path d="m111.62 71.2a3.27 3.27 0 0 0 -1.94-.71 3.1 3.1 0 0 0 -2.53 1.18 4.52 4.52 0 0 0 -1 2.94 2.38 2.38 0 0 0 .54 1.57 1.73 1.73 0 0 0 1.39.65 5.73 5.73 0 0 0 2.89-1l-.28 2.39a7.41 7.41 0 0 1 -2.88.58 4.11 4.11 0 0 1 -2.95-1 3.71 3.71 0 0 1 -1.08-2.83 6.57 6.57 0 0 1 1.58-4.53 5.32 5.32 0 0 1 4.15-1.78 5.13 5.13 0 0 1 2.54.6z"/><path d="m112.47 74.91a6.54 6.54 0 0 1 1.62-4.49 5.24 5.24 0 0 1 4.1-1.83 4.07 4.07 0 0 1 2.92 1 3.72 3.72 0 0 1 1 2.8 6.66 6.66 0 0 1 -1.61 4.55 5.21 5.21 0 0 1 -4.13 1.84 4 4 0 0 1 -2.9-1 3.78 3.78 0 0 1 -1-2.86m2.38-.11q0 2.1 1.8 2.1a2.56 2.56 0 0 0 2.26-1.33 5.73 5.73 0 0 0 .84-3.14c0-1.31-.6-2-1.81-2a2.58 2.58 0 0 0 -2.25 1.3 5.48 5.48 0 0 0 -.84 3"/><path d="m122.59 74.91a6.54 6.54 0 0 1 1.62-4.49 5.24 5.24 0 0 1 4.1-1.83 4.06 4.06 0 0 1 2.92 1 3.68 3.68 0 0 1 1 2.8 6.7 6.7 0 0 1 -1.6 4.55 5.23 5.23 0 0 1 -4.14 1.84 4 4 0 0 1 -2.9-1 3.78 3.78 0 0 1 -1-2.86m2.41-.12q0 2.1 1.8 2.1a2.58 2.58 0 0 0 2.2-1.33 5.81 5.81 0 0 0 .83-3.14c0-1.31-.6-2-1.8-2a2.56 2.56 0 0 0 -2.25 1.3 5.41 5.41 0 0 0 -.85 3"/><path d="m134.85 78.31-.74 4.12h-2.29l2-10.63a5.82 5.82 0 0 0 .11-1.18 8.16 8.16 0 0 0 -.16-1.62l2.23-.4a4 4 0 0 1 .21.93 4.23 4.23 0 0 1 2.53-.94q3.93 0 3.93 3.81a6.6 6.6 0 0 1 -1.67 4.6 5.48 5.48 0 0 1 -4.26 1.78 4.16 4.16 0 0 1 -1.93-.45m.35-2a1.78 1.78 0 0 0 1.33.47 3.47 3.47 0 0 0 2.76-1.09 4.58 4.58 0 0 0 1-3.11 2 2 0 0 0 -.58-1.5 2.14 2.14 0 0 0 -1.58-.56 2.49 2.49 0 0 0 -1.06.3 2.57 2.57 0 0 0 -.91.65z"/><path d="m145.86 74.32v.41a2 2 0 0 0 .61 1.58 2.47 2.47 0 0 0 1.69.55 3.55 3.55 0 0 0 1.33-.32 4 4 0 0 0 1.18-.71l-.27 2.41a6.86 6.86 0 0 1 -2.84.52 4 4 0 0 1 -2.94-1.14 4.28 4.28 0 0 1 -1.12-3.14 5.82 5.82 0 0 1 1.62-4.21 5.66 5.66 0 0 1 4.26-1.68 4.43 4.43 0 0 1 2.51.65 2.15 2.15 0 0 1 1 1.88 3 3 0 0 1 -1.44 2.6 6.26 6.26 0 0 1 -3.53.94 6 6 0 0 1 -2-.34m.44-1.73a4.47 4.47 0 0 0 1.29.18 5.31 5.31 0 0 0 2.11-.38 1.21 1.21 0 0 0 .86-1.1c0-.53-.58-.8-1.74-.8a2.18 2.18 0 0 0 -1.4.6 4.11 4.11 0 0 0 -1.12 1.5"/><path d="m160.46 71.1a2.56 2.56 0 0 0 -1.44-.61 2.19 2.19 0 0 0 -1.62.78 3.46 3.46 0 0 0 -.93 1.77l-1 5.54h-2.3l1.83-9.81h2.29l-.15.85a4.05 4.05 0 0 1 2.69-1 9.91 9.91 0 0 1 1.35.17z"/><path d="m169.37 75.06a3.54 3.54 0 0 0 -.07.75 8.46 8.46 0 0 0 .31 2.77h-1.43c-.42 0-.74-.33-1-1a4 4 0 0 1 -2.92 1.16 3.34 3.34 0 0 1 -2.47-.89 3.46 3.46 0 0 1 -.87-2.5 7.14 7.14 0 0 1 1.69-4.79 5.34 5.34 0 0 1 4.26-2 9.94 9.94 0 0 1 3.58.46zm-2.65-4.6a2.8 2.8 0 0 0 -2.46 1.47 6.27 6.27 0 0 0 -.91 3.38 1.39 1.39 0 0 0 1.56 1.59 2.07 2.07 0 0 0 1.72-1.22 16.07 16.07 0 0 0 1.32-5 4.69 4.69 0 0 0 -1.23-.18"/><path d="m178.57 70.61h-2.7l-1 4.35a4.05 4.05 0 0 0 -.12.87c0 .67.38 1 1.14 1a5 5 0 0 0 1.65-.48v2.06a8.47 8.47 0 0 1 -2.69.34 2.4 2.4 0 0 1 -1.8-.69 2.52 2.52 0 0 1 -.68-1.82 3 3 0 0 1 .09-.72l1.1-4.92h-1.13l.39-1.84h1.18l.38-2 2.62-1-.69 3h2.69z"/><path d="m181.66 74.32v.41a2 2 0 0 0 .6 1.58 2.48 2.48 0 0 0 1.7.55 3.5 3.5 0 0 0 1.32-.32 3.84 3.84 0 0 0 1.18-.71l-.26 2.41a6.89 6.89 0 0 1 -2.84.52 4 4 0 0 1 -2.94-1.14 4.28 4.28 0 0 1 -1.13-3.14 5.83 5.83 0 0 1 1.63-4.21 5.64 5.64 0 0 1 4.25-1.68 4.43 4.43 0 0 1 2.51.65 2.15 2.15 0 0 1 1 1.88 3 3 0 0 1 -1.43 2.6 6.28 6.28 0 0 1 -3.53.94 6.06 6.06 0 0 1 -2-.34m.44-1.73a4.49 4.49 0 0 0 1.3.18 5.22 5.22 0 0 0 2.1-.38 1.2 1.2 0 0 0 .86-1.1c0-.53-.58-.8-1.74-.8a2.2 2.2 0 0 0 -1.4.6 4.22 4.22 0 0 0 -1.12 1.5"/><path d="m201.1 70.61h-2.7l-1 4.35a4.05 4.05 0 0 0 -.12.87c0 .67.38 1 1.13 1a5 5 0 0 0 1.65-.48v2.06a8.47 8.47 0 0 1 -2.69.34 2.42 2.42 0 0 1 -1.8-.69 2.51 2.51 0 0 1 -.67-1.82 2.94 2.94 0 0 1 .08-.72l1.11-4.92h-1.09l.4-1.84h1.13l.39-2 2.61-1-.68 3h2.68z"/><path d="m201.71 74.91a6.54 6.54 0 0 1 1.62-4.49 5.24 5.24 0 0 1 4.1-1.83 4.07 4.07 0 0 1 2.92 1 3.72 3.72 0 0 1 1 2.8 6.66 6.66 0 0 1 -1.61 4.55 5.2 5.2 0 0 1 -4.14 1.84 4 4 0 0 1 -2.89-1 3.78 3.78 0 0 1 -1-2.86m2.38-.11q0 2.1 1.8 2.1a2.56 2.56 0 0 0 2.26-1.33 5.73 5.73 0 0 0 .84-3.14c0-1.31-.61-2-1.81-2a2.58 2.58 0 0 0 -2.25 1.3 5.48 5.48 0 0 0 -.84 3"/><path d="m220.91 78.76h-.82l-1.71-5.67-3.67 5.67h-.85l-1.93-9.99h2.33l.98 5.41 3.36-5.41h.82l1.62 5.47 2.83-5.47h2.43z"/><path d="m234.16 75.06a4.38 4.38 0 0 0 -.06.75 8.19 8.19 0 0 0 .31 2.77h-1.41c-.43 0-.75-.33-.95-1a4 4 0 0 1 -2.93 1.16 3.3 3.3 0 0 1 -2.46-.89 3.42 3.42 0 0 1 -.88-2.5 7.19 7.19 0 0 1 1.69-4.79 5.36 5.36 0 0 1 4.27-2 10 10 0 0 1 3.58.46zm-2.65-4.6a2.78 2.78 0 0 0 -2.45 1.47 6.27 6.27 0 0 0 -.92 3.38 1.39 1.39 0 0 0 1.56 1.59 2.09 2.09 0 0 0 1.73-1.22 15.86 15.86 0 0 0 1.31-5 4.58 4.58 0 0 0 -1.23-.18"/><path d="m243.63 71.1a2.61 2.61 0 0 0 -1.44-.61 2.2 2.2 0 0 0 -1.63.78 3.46 3.46 0 0 0 -.93 1.77l-1 5.54h-2.3l1.83-9.81h2.3l-.16.85a4.05 4.05 0 0 1 2.69-1 9.73 9.73 0 0 1 1.35.17z"/><path d="m252.36 78.58h-2.28l.17-.92a2.82 2.82 0 0 1 -2.52 1.1 3.53 3.53 0 0 1 -2.69-1 3.78 3.78 0 0 1 -1-2.75 6.73 6.73 0 0 1 1.57-4.61 5.23 5.23 0 0 1 4.16-1.8 3.69 3.69 0 0 1 1.11.19 2.84 2.84 0 0 1 .89.42l.84-4.45h2.22zm-2.36-8.06a3.07 3.07 0 0 0 -2.52 1.16 4.56 4.56 0 0 0 -.94 3c0 1.49.61 2.24 1.85 2.24s2.19-1.07 2.59-3.19l.44-2.34a1.51 1.51 0 0 0 -1.42-.83"/><path d="m261.29 71.46a3.16 3.16 0 0 0 -2-1 1.87 1.87 0 0 0 -1 .26.81.81 0 0 0 -.42.71c0 .36.33.7 1 1s1.17.6 1.52.8a2.42 2.42 0 0 1 .87.81 2 2 0 0 1 .34 1.17 3 3 0 0 1 -1.21 2.55 5 5 0 0 1 -3.1.93 6.14 6.14 0 0 1 -3.15-.9l1.21-2.08a3.33 3.33 0 0 0 2.24 1.08 1.85 1.85 0 0 0 1.15-.35 1.13 1.13 0 0 0 .45-.94c0-.33-.28-.65-.86-.95s-1.08-.57-1.52-.82a2.67 2.67 0 0 1 -1-.9 2.17 2.17 0 0 1 -.34-1.19 2.68 2.68 0 0 1 1.14-2.27 4.51 4.51 0 0 1 2.79-.85 8.07 8.07 0 0 1 3 .77z"/><path d="m276.29 70.48a2.75 2.75 0 0 1 .2 1.09 4.71 4.71 0 0 1 -.62 2.48 4.4 4.4 0 0 1 -2 1.69 5.2 5.2 0 0 0 -1.56.88 5.45 5.45 0 0 1 1-.12 2.58 2.58 0 0 1 1.75.63 2 2 0 0 1 .72 1.6 3.25 3.25 0 0 1 -1.25 2.73 5.78 5.78 0 0 1 -3.62 1 6.39 6.39 0 0 1 -2-.35 5.75 5.75 0 0 1 -1.72-.86l1-1.73a4.63 4.63 0 0 0 2.72.93c1.69 0 2.54-.46 2.54-1.37a.59.59 0 0 0 -.26-.49 2 2 0 0 0 -.79-.29l-1.76-.3c-.65-.21-1-.58-1-1.14 0-.32.27-.65.81-1a3.14 3.14 0 0 1 -1.62-1.06 2.75 2.75 0 0 1 -.63-1.75 4.21 4.21 0 0 1 1.31-3.21 4.72 4.72 0 0 1 3.36-1.23 4 4 0 0 1 2.14.54l.86-.93 1.34 1.33zm-5.74 2.35a2 2 0 0 0 .33 1.2 1.05 1.05 0 0 0 .9.47 2.05 2.05 0 0 0 1.67-.81 2.94 2.94 0 0 0 .66-1.94q0-1.29-1.35-1.29a2.07 2.07 0 0 0 -1.61.66 2.44 2.44 0 0 0 -.6 1.71"/><path d="m284.61 71.1a2.56 2.56 0 0 0 -1.44-.61 2.19 2.19 0 0 0 -1.62.78 3.46 3.46 0 0 0 -.93 1.77l-1 5.54h-2.3l1.83-9.81h2.3l-.15.85a4.05 4.05 0 0 1 2.69-1 9.91 9.91 0 0 1 1.35.17z"/><path d="m285.13 74.91a6.54 6.54 0 0 1 1.62-4.49 5.24 5.24 0 0 1 4.1-1.83 4.07 4.07 0 0 1 2.92 1 3.72 3.72 0 0 1 1 2.8 6.7 6.7 0 0 1 -1.6 4.55 5.23 5.23 0 0 1 -4.14 1.84 4 4 0 0 1 -2.9-1 3.78 3.78 0 0 1 -1-2.86m2.38-.11q0 2.1 1.8 2.1a2.56 2.56 0 0 0 2.26-1.33 5.73 5.73 0 0 0 .84-3.14c0-1.31-.6-2-1.81-2a2.56 2.56 0 0 0 -2.24 1.3 5.41 5.41 0 0 0 -.85 3"/><path d="m304.33 78.76h-.82l-1.71-5.67-3.67 5.67h-.85l-1.93-9.99h2.33l.98 5.41 3.36-5.41h.82l1.62 5.47 2.83-5.47h2.43z"/><path d="m316.24 70.61h-2.71l-1 4.35a4 4 0 0 0 -.11.87c0 .67.37 1 1.13 1a5 5 0 0 0 1.65-.48v2.06a8.47 8.47 0 0 1 -2.69.34 2.4 2.4 0 0 1 -1.8-.69 2.51 2.51 0 0 1 -.67-1.82 2.94 2.94 0 0 1 .08-.72l1.11-4.92h-1.13l.39-1.84h1.14l.38-2 2.62-1-.68 3h2.68z"/><path d="m326.08 72.58-1.13 6h-2.35l1.15-6.09a3.93 3.93 0 0 0 .06-.6 1.22 1.22 0 0 0 -1.38-1.37 3 3 0 0 0 -2.23 1l-1.3 7h-2.33l2.49-13.83h2.28l-.75 4.62a4.69 4.69 0 0 1 2.57-.78 3 3 0 0 1 2.21.79 2.9 2.9 0 0 1 .81 2.19 6.16 6.16 0 0 1 -.1 1"/></g></svg>