<svg viewBox="0 0 577.17 255.26" xmlns="http://www.w3.org/2000/svg"><path d="m112.83 71.9a21.87 21.87 0 0 0 -9.83 17.92c-.09 10.46 1.24 29.18 7.72 60.42 9.17 44.14-64 75.06-95.74 86.25a5 5 0 0 0 .24 9.46c35.43 10.44 125.57 28.19 150.25-51.95 19.94-64.73 20.1-101.78 17.7-119.93a20.16 20.16 0 0 0 -18.69-17.36c-12.27-.83-30.83 1.29-51.65 15.19z" fill="#ec1c24"/><path d="m105.9 123.39s92.44 119.36-71.73 105.71a318.27 318.27 0 0 0 48.83-27.41c2.16-1.49 13-8.93 20-19.19a49.07 49.07 0 0 0 5.41-10.15 48.5 48.5 0 0 0 2.84-11.15 29.7 29.7 0 0 0 .31-3.13 28.85 28.85 0 0 0 -1-8.52c-1-4-1.52-8-2.33-12-.66-3.36-1.56-8.18-2.33-14.16z" fill="#a60e13"/><path d="m71.58 183.72a21.87 21.87 0 0 0 9.64-18c0-10.46-1.51-29.17-8.29-60.34-9.59-44.07 63.31-75.68 94.92-87.18a5 5 0 0 0 -.33-9.45c-35.52-10.1-125.81-27-149.73 53.36-19.33 64.89-19.14 101.96-16.56 120.08a20.14 20.14 0 0 0 18.85 17.19c12.28.73 30.82-1.53 51.5-15.66z" fill="#909294"/><path d="m78 132.16s-93.54-118.47 70.75-106.38a318.12 318.12 0 0 0 -48.6 27.87c-2.15 1.51-12.88 9.05-19.8 19.35a47.93 47.93 0 0 0 -8 21.38 27.58 27.58 0 0 0 .78 11.64c1 3.94 1.59 8 2.45 12 .68 3.36 1.62 8.18 2.42 14.14z" fill="#58595b"/><g fill="#5a4a33"><path d="m245.56 162.33c-8.77 0-15.08-2.05-20.65-7.71l5.9-5.81c4.26 4.26 8.93 5.57 14.92 5.57 7.62 0 12-3.28 12-8.94a7.82 7.82 0 0 0 -2.29-6.06c-1.48-1.4-2.95-2-6.39-2.46l-6.89-1c-4.75-.65-8.52-2.29-11.06-4.66-2.87-2.71-4.26-6.4-4.26-11.15 0-10.17 7.37-17.14 19.5-17.14 7.71 0 13.12 2 18.12 6.64l-5.66 5.58c-3.6-3.45-7.79-4.51-12.7-4.51-6.89 0-10.66 3.93-10.66 9.1a7 7 0 0 0 2.22 5.41 13 13 0 0 0 6.55 2.7l6.64 1c5.41.82 8.44 2.13 10.9 4.34 3.2 2.79 4.75 7 4.75 12 .04 10.71-8.73 17.1-20.94 17.1z"/><path d="m293.68 161.84v-58.36h8.85v58.36z"/><path d="m375.64 161.84v-39l-13.44 28.42h-6.56l-13.77-28.44v39h-8.87v-58.34h8.85l17.05 36.31 16.72-36.31h8.85v58.36z"/><path d="m433.23 138.89h-13.23v23h-8.9v-58.41h22.13c11.4 0 18.69 7.54 18.69 17.7s-7.29 17.71-18.69 17.71zm-.49-27.46h-12.74v19.42h12.79c6.15 0 10.33-3.52 10.33-9.67s-4.23-9.75-10.38-9.75z"/><path d="m540.2 164.24v-58.35h8.85v50.4h28.12v8z"/><path d="m477.58 162.64v-58.36h37.29v8h-28.44v17h24.26v7.87h-24.26v17.54h28.44v7.95z"/></g></svg>