<svg viewBox="0 0 80.29 93.69" xmlns="http://www.w3.org/2000/svg"><g fill="#fff"><path d="m40.06 79.43c-9.92 0-19.84-.22-29.75.07-7.21.22-12.14-7.2-9.66-13.29.9-2.21 1.9-4.65 3.58-6.21 5.29-4.93 7.42-11.22 8.41-18 .7-4.78.62-9.68 1.34-14.45 1.4-9.32 6.34-16.15 15.06-20.1a4.76 4.76 0 0 0 2-1.94 9.78 9.78 0 0 1 9.21-5.51 9.79 9.79 0 0 1 9.11 5.66 5.3 5.3 0 0 0 2.23 2c7.41 3.67 12.85 9.09 14.41 17.42.8 4.17.68 8.51 1.1 12.76.52 5.26 1.42 10.49 3.9 15.22a25.54 25.54 0 0 0 4.45 5.94c3.23 3.28 5.23 7 4.77 11.65-.55 5.55-4.32 8.74-10 8.76-10.06 0-20.11 0-30.17 0zm0-3.52h29.53c5.43 0 8.16-3.63 6.49-8.8a12.49 12.49 0 0 0 -3-5 26.42 26.42 0 0 1 -6.5-9.91 60.3 60.3 0 0 1 -3.71-21.2c-.07-10.1-5.2-16.54-14.07-20.44a4.16 4.16 0 0 1 -2.8-2.9 5.83 5.83 0 0 0 -5.69-4.05 5.82 5.82 0 0 0 -6 4 4 4 0 0 1 -2.78 2.84c-8.65 3.3-13.91 11.23-14.22 20.47a102.68 102.68 0 0 1 -1.61 15.08c-1.15 6.21-3.7 11.84-8.54 16.33a13.42 13.42 0 0 0 -3.08 5.67 6.09 6.09 0 0 0 6 7.87z"/><path d="m38.66 93.68a15 15 0 0 1 -12.82-7.87 3.68 3.68 0 0 1 -.73-2 8 8 0 0 1 1.09-2.27c.67.4 1.62.63 2 1.22 3.81 6.54 10.35 9 17.23 6.35a11.36 11.36 0 0 0 6.46-5.89c.36-.74 1.68-1.69 2.26-1.52 1.48.43 1.26 1.78.77 3-2.14 5.4-8.13 9.01-16.26 8.98z"/></g></svg>