<svg viewBox="0 0 830.29 775.19" xmlns="http://www.w3.org/2000/svg"><ellipse cx="415.14" cy="535.5" fill="#f0f0f0" rx="415.14" ry="239.68"/><ellipse cx="329.23" cy="634.49" fill="#e0e0e0" rx="143.16" ry="82.65"/><path d="m505.29 478.82-6.68-3.82a8.43 8.43 0 0 1 -3.81-6.61v-277.61a8.44 8.44 0 0 1 3.82-6.61l185.62-107.17a8.41 8.41 0 0 1 7.63 0l6.69 3.86a8.41 8.41 0 0 1 3.82 6.6v277.54a8.44 8.44 0 0 1 -3.82 6.61l-185.64 107.21a8.41 8.41 0 0 1 -7.63 0z" fill="#455a64"/><path d="m702.34 86.84c-.26-2-1.86-2.69-3.79-1.58l-185.62 107.19a8 8 0 0 0 -2.7 2.84l-14.32-8.29a7.71 7.71 0 0 1 2.69-2.85l185.65-107.15a8.47 8.47 0 0 1 7.63 0l6.67 3.86a8.49 8.49 0 0 1 3.79 5.98z" fill="#634545"/><path d="m512.28 479.13a8.52 8.52 0 0 1 -7-.3l-6.68-3.83a8.45 8.45 0 0 1 -3.8-6.61v-277.61a7.79 7.79 0 0 1 1.11-3.76l14.32 8.27a7.71 7.71 0 0 0 -1.12 3.77v277.57c0 2.18 1.37 3.19 3.17 2.5z" fill="#352525"/><path d="m509.11 199.05v277.57c0 2.43 1.71 3.42 3.81 2.2l185.64-107.18a8.44 8.44 0 0 0 3.82-6.61v-277.57c0-2.43-1.71-3.42-3.82-2.2l-185.64 107.19a8.43 8.43 0 0 0 -3.81 6.6z" fill="#4c3535"/><path d="m465.76 304.86c-2.4-1.43-13.52-7.76-14.1-8.09a3.56 3.56 0 0 1 -.76-5.45l43.9-47.08 14.31 8.21-43.88 47.1a3.54 3.54 0 0 0 .53 5.31z" fill="#634545"/><path d="m509.11 252.46-43.89 47.09a3.53 3.53 0 0 0 2.87 5.92l41-3.38z" fill="#4c3535"/><path d="m605.74 167.73c21.64-12.5 39.18-2.37 39.18 22.61s-17.54 55.36-39.18 67.85-39.17 2.37-39.17-22.61 17.54-55.36 39.17-67.85z" fill="#dd2828"/><path d="m605.47 187.39c7-4.06 12.71-.77 12.71 7.33s-5.7 18-12.71 22-12.71.76-12.71-7.34 5.69-17.94 12.71-21.99z" fill="#fff"/><path d="m630.51 230.6c0-13.31-9.35-18.71-20.88-12l-7.21 4.16c-11.53 6.66-20.88 22.85-20.88 36.16v3.64a21.41 21.41 0 0 0 6.73 1c5.26 0 11.19-1.72 17.47-5.35 9.4-5.42 18-14.23 24.77-24.5z" fill="#fff"/><path d="m580.93 381.88 49.63-28.66c2.1-1.22 3.81-.23 3.81 2.2v16a8.46 8.46 0 0 1 -3.81 6.61l-49.63 28.65c-2.11 1.22-3.82.23-3.82-2.2v-16a8.41 8.41 0 0 1 3.82-6.6z" fill="#dd2828"/><g fill="#fafafa"><path d="m556.64 346.17 98.21-56.7c2.53-1.46 4.58-.28 4.58 2.64v5.95a10.12 10.12 0 0 1 -4.58 7.93l-98.21 56.7c-2.53 1.46-4.58.28-4.58-2.64v-5.95a10.12 10.12 0 0 1 4.58-7.93z"/><path d="m568.12 305.13c1.34-.77 2.38-.89 3.12-.34s1.11 1.75 1.11 3.62a10.44 10.44 0 0 1 -1.11 4.92 7.9 7.9 0 0 1 -3.12 3.28l-2.65 1.53v5.69a1.39 1.39 0 0 1 -.13.56.86.86 0 0 1 -.32.39l-1.34.77a.23.23 0 0 1 -.32 0 .52.52 0 0 1 -.13-.4v-16.51a1.3 1.3 0 0 1 .13-.56.83.83 0 0 1 .32-.38zm-2.65 9.87 2.57-1.48a4.26 4.26 0 0 0 1.51-1.44 4.39 4.39 0 0 0 .56-2.33c0-.95-.19-1.51-.56-1.65a1.81 1.81 0 0 0 -1.51.32l-2.57 1.48z"/><path d="m579.74 298.42c.17-.1.31-.1.39 0a1.26 1.26 0 0 1 .24.52l4.06 13.78a.86.86 0 0 1 0 .17 1.27 1.27 0 0 1 -.13.56.85.85 0 0 1 -.31.39l-1.2.68c-.22.13-.37.15-.46.06a.73.73 0 0 1 -.18-.32l-.72-2.42-5.23 3-.72 3.25a2.31 2.31 0 0 1 -.18.52 1.08 1.08 0 0 1 -.46.49l-1.2.69a.23.23 0 0 1 -.31 0 .52.52 0 0 1 -.13-.4 1.15 1.15 0 0 1 0-.19l4.06-18.47a4 4 0 0 1 .24-.79.93.93 0 0 1 .39-.44zm.91 10.68-1.83-6.22-1.82 8.32z"/><path d="m590.61 291.89a4.31 4.31 0 0 1 1.95-.67 2.31 2.31 0 0 1 1.41.34 2.28 2.28 0 0 1 .86 1 3.92 3.92 0 0 1 .32 1.39 1.11 1.11 0 0 1 -.12.56.91.91 0 0 1 -.33.38l-1.16.67c-.19.11-.33.14-.42.08a.72.72 0 0 1 -.26-.3 1.27 1.27 0 0 0 -.75-.67 2 2 0 0 0 -1.5.39 4.48 4.48 0 0 0 -1.5 1.42 4.1 4.1 0 0 0 -.46.91 2.93 2.93 0 0 0 -.16 1 1.79 1.79 0 0 0 .16.87.64.64 0 0 0 .53.33 3 3 0 0 0 1-.07c.41-.08.92-.2 1.53-.35a6.29 6.29 0 0 1 1.71-.21 2 2 0 0 1 1.18.39 2.26 2.26 0 0 1 .68 1.05 5.71 5.71 0 0 1 .22 1.74 8.55 8.55 0 0 1 -.33 2.32 10.15 10.15 0 0 1 -.94 2.23 10.39 10.39 0 0 1 -1.51 2 9.24 9.24 0 0 1 -2 1.57 5.4 5.4 0 0 1 -1.77.67 2.65 2.65 0 0 1 -1.5-.12 2.18 2.18 0 0 1 -1-1 3.79 3.79 0 0 1 -.45-1.78 1.13 1.13 0 0 1 .12-.57 1 1 0 0 1 .33-.38l1.16-.66c.18-.12.33-.15.43-.1a.54.54 0 0 1 .25.31 2.22 2.22 0 0 0 .28.5.85.85 0 0 0 .44.33 1.38 1.38 0 0 0 .71 0 3.34 3.34 0 0 0 1.05-.45 6.57 6.57 0 0 0 1-.66 5.13 5.13 0 0 0 .82-.86 5.05 5.05 0 0 0 .56-1 3 3 0 0 0 .21-1.11 1.07 1.07 0 0 0 -.23-.79.92.92 0 0 0 -.7-.2 5.4 5.4 0 0 0 -1.17.19c-.46.11-1 .23-1.61.34a5 5 0 0 1 -1.45.11 1.73 1.73 0 0 1 -1-.44 2.29 2.29 0 0 1 -.6-1.09 7.31 7.31 0 0 1 -.2-1.87 8.36 8.36 0 0 1 .33-2.3 10.11 10.11 0 0 1 .91-2.19 9.83 9.83 0 0 1 1.39-1.88 7.29 7.29 0 0 1 1.58-1.37z"/><path d="m602.17 285.21a4.36 4.36 0 0 1 2-.66 2.42 2.42 0 0 1 1.41.33 2.26 2.26 0 0 1 .85 1 4 4 0 0 1 .33 1.39 1 1 0 0 1 -.13.57.85.85 0 0 1 -.32.37l-1.16.67c-.19.11-.33.14-.42.08a.68.68 0 0 1 -.26-.29 1.35 1.35 0 0 0 -.75-.68 2 2 0 0 0 -1.51.39 5.13 5.13 0 0 0 -.81.62 4 4 0 0 0 -.68.8 3.71 3.71 0 0 0 -.46.91 3 3 0 0 0 -.17 1 1.84 1.84 0 0 0 .16.86.66.66 0 0 0 .53.33 3 3 0 0 0 1-.07c.41-.08.91-.2 1.52-.34a6.46 6.46 0 0 1 1.72-.22 2 2 0 0 1 1.17.4 2.1 2.1 0 0 1 .68 1 5.62 5.62 0 0 1 .23 1.73 8.55 8.55 0 0 1 -.33 2.32 9.54 9.54 0 0 1 -1 2.23 10.09 10.09 0 0 1 -1.51 2 9 9 0 0 1 -2 1.57 5.64 5.64 0 0 1 -1.78.68 2.71 2.71 0 0 1 -1.49-.13 2.18 2.18 0 0 1 -1.06-1 4 4 0 0 1 -.44-1.79 1.15 1.15 0 0 1 .12-.57.85.85 0 0 1 .32-.37l1.16-.67a.52.52 0 0 1 .43-.1.5.5 0 0 1 .25.32 3.53 3.53 0 0 0 .28.5.87.87 0 0 0 .45.32 1.38 1.38 0 0 0 .71 0 3.53 3.53 0 0 0 1-.44 7.54 7.54 0 0 0 1-.67 5 5 0 0 0 .81-.85 5.18 5.18 0 0 0 .57-1 3 3 0 0 0 .21-1.11 1.08 1.08 0 0 0 -.23-.78 1 1 0 0 0 -.71-.21 5.59 5.59 0 0 0 -1.17.19c-.46.12-1 .23-1.6.34a4.73 4.73 0 0 1 -1.45.11 1.7 1.7 0 0 1 -1-.44 2.24 2.24 0 0 1 -.6-1.09 6.85 6.85 0 0 1 -.2-1.86 8.37 8.37 0 0 1 .33-2.31 9.82 9.82 0 0 1 .91-2.19 10.22 10.22 0 0 1 1.38-1.88 8 8 0 0 1 1.71-1.31z"/><path d="m615 287.42-1.43 8.45a3.72 3.72 0 0 1 -.2.74.88.88 0 0 1 -.38.46l-1.34.78c-.16.09-.3.09-.39 0a1 1 0 0 1 -.19-.51l-2.07-14.9a1.76 1.76 0 0 1 0-.19 1.33 1.33 0 0 1 .14-.57.81.81 0 0 1 .31-.38l1.23-.71a.35.35 0 0 1 .31 0c.1.05.17.19.2.42l1.39 10 1.23-7.52a2.56 2.56 0 0 1 .16-.55.94.94 0 0 1 .42-.53l1.36-.78q.3-.18.42 0a1.79 1.79 0 0 1 .16.37l1.22 6.11 1.4-11.62a1.56 1.56 0 0 1 .2-.66.83.83 0 0 1 .31-.33l1.23-.71a.24.24 0 0 1 .31 0 .55.55 0 0 1 .13.41 1.79 1.79 0 0 1 0 .21l-2.13 17.37a3 3 0 0 1 -.19.73 1 1 0 0 1 -.39.47l-1.35.78c-.16.09-.29.08-.37 0a1.56 1.56 0 0 1 -.21-.51z"/><path d="m623.27 280a16.78 16.78 0 0 1 .36-2.9 12.15 12.15 0 0 1 .9-2.71 11 11 0 0 1 1.47-2.39 7.92 7.92 0 0 1 2.13-1.77 4.13 4.13 0 0 1 2.1-.68 2.07 2.07 0 0 1 1.49.62 3.87 3.87 0 0 1 .91 1.67 10.38 10.38 0 0 1 .37 2.49v1.06s0 .79 0 1.21 0 .82 0 1.21 0 .76 0 1.09a17.82 17.82 0 0 1 -.36 2.9 12.15 12.15 0 0 1 -.9 2.71 10.6 10.6 0 0 1 -1.5 2.34 8.24 8.24 0 0 1 -2.11 1.75 4.31 4.31 0 0 1 -2.13.69 2.08 2.08 0 0 1 -1.49-.61 3.6 3.6 0 0 1 -.9-1.67 10.56 10.56 0 0 1 -.36-2.48c0-.32 0-.67 0-1.06s0-.79 0-1.21 0-.82 0-1.22.01-.76.02-1.04zm7.51-4.21a3.26 3.26 0 0 0 -.77-2.4c-.47-.4-1.09-.38-1.86.07a4.74 4.74 0 0 0 -1.87 2.09 7.81 7.81 0 0 0 -.77 3.28v2.18s0 1.5 0 2.14a3.18 3.18 0 0 0 .77 2.38c.47.4 1.09.37 1.87-.08a4.78 4.78 0 0 0 1.86-2.07 7.77 7.77 0 0 0 .77-3.28c0-.66 0-1.38 0-2.17s.02-1.55 0-2.19z"/><path d="m640.76 263.19c1.38-.79 2.42-.9 3.14-.33s1.08 1.73 1.08 3.48a10.79 10.79 0 0 1 -.55 3.5 8.91 8.91 0 0 1 -1.64 2.9l2.29 5a.7.7 0 0 1 0 .25 1.14 1.14 0 0 1 -.11.46.74.74 0 0 1 -.25.31l-1.41.81c-.22.13-.39.14-.49 0a.92.92 0 0 1 -.23-.31l-2.17-4.7-2.2 1.28v5.94a1.39 1.39 0 0 1 -.13.56.86.86 0 0 1 -.32.39l-1.34.77a.24.24 0 0 1 -.32 0 .57.57 0 0 1 -.13-.41v-16.48a1.43 1.43 0 0 1 .13-.56.86.86 0 0 1 .32-.39zm-2.49 9.48 2.4-1.39a4.47 4.47 0 0 0 1.51-1.38 4 4 0 0 0 .56-2.27c0-.95-.18-1.48-.56-1.58a2.06 2.06 0 0 0 -1.51.38l-2.4 1.39z"/><path d="m652.51 256.41a4.7 4.7 0 0 1 2.12-.73 2 2 0 0 1 1.51.55 3.54 3.54 0 0 1 .93 1.68 11 11 0 0 1 .39 2.68q.07 1.85 0 3.78a17.28 17.28 0 0 1 -.39 3.13 12.88 12.88 0 0 1 -.92 2.75 9.55 9.55 0 0 1 -1.48 2.27 8 8 0 0 1 -2.08 1.7l-4.18 2.41a.23.23 0 0 1 -.31 0 .53.53 0 0 1 -.14-.41v-16.5a1.32 1.32 0 0 1 .14-.56.85.85 0 0 1 .31-.39zm2.71 5.47a6.11 6.11 0 0 0 -.2-1.39 2.08 2.08 0 0 0 -.52-.93 1.16 1.16 0 0 0 -.85-.33 2.68 2.68 0 0 0 -1.23.42l-2.22 1.28v11.48l2.31-1.33a4.39 4.39 0 0 0 1.17-1 5.74 5.74 0 0 0 .83-1.28 7.34 7.34 0 0 0 .51-1.52 10.05 10.05 0 0 0 .2-1.65q.07-1.89 0-3.75z"/></g><path d="m410.52.66a32.43 32.43 0 0 1 8.71 3.27 25.11 25.11 0 0 1 6.93 5.5 19.85 19.85 0 0 1 4.08 7.4 17.56 17.56 0 0 1 .18 9 17.79 17.79 0 0 1 -2.74 6.56 21.23 21.23 0 0 1 -4.3 4.51 33.72 33.72 0 0 1 -5.11 3.3l-5.08 2.69a28.57 28.57 0 0 0 -4.33 2.81 8.21 8.21 0 0 0 -2.71 3.62 3.93 3.93 0 0 1 -1.3 1.67 2.27 2.27 0 0 1 -1.94.4l-7.47-1.66a2.74 2.74 0 0 1 -1.74-1.21 2.22 2.22 0 0 1 -.33-2 17.56 17.56 0 0 1 3.11-6.37 24.78 24.78 0 0 1 4.6-4.45 34.83 34.83 0 0 1 5.25-3.21q2.71-1.37 5.07-2.65a22.69 22.69 0 0 0 4-2.72 6.32 6.32 0 0 0 2.12-3.5 7.61 7.61 0 0 0 -1.79-6.84 13.72 13.72 0 0 0 -7.82-4.26q-8.36-1.84-14.13 5.64a5.84 5.84 0 0 1 -1.39 1.39 2.58 2.58 0 0 1 -1.94.14l-8-1.76a2.18 2.18 0 0 1 -1.39-.93 2.1 2.1 0 0 1 -.3-1.71 15.65 15.65 0 0 1 3.67-6.56 24.49 24.49 0 0 1 6.84-5.29 29.86 29.86 0 0 1 9-3 26.19 26.19 0 0 1 10.25.22zm-8.43 56.69a2.76 2.76 0 0 1 2.07 3.24l-1.92 8.65a2.76 2.76 0 0 1 -3.24 2.07l-8.45-1.87a2.76 2.76 0 0 1 -2.07-3.24l1.92-8.65a2.74 2.74 0 0 1 3.24-2.07z" fill="#dd2828"/><path d="m419.93 83.32a22.67 22.67 0 0 1 6.42-.13 17.48 17.48 0 0 1 5.85 1.75 13.68 13.68 0 0 1 4.51 3.7 12.16 12.16 0 0 1 2.41 5.7 12.33 12.33 0 0 1 -.08 4.91 14.56 14.56 0 0 1 -1.6 4 23.75 23.75 0 0 1 -2.43 3.42l-2.57 3a19.38 19.38 0 0 0 -2.06 2.91 5.6 5.6 0 0 0 -.81 3 2.72 2.72 0 0 1 -.4 1.41 1.62 1.62 0 0 1 -1.15.75l-5.21.85a2 2 0 0 1 -1.43-.33 1.52 1.52 0 0 1 -.72-1.22 12.13 12.13 0 0 1 .36-4.88 16.53 16.53 0 0 1 1.81-4 24.76 24.76 0 0 1 2.54-3.41c.93-1 1.79-2 2.57-3a14.84 14.84 0 0 0 1.87-2.75 4.3 4.3 0 0 0 .46-2.78 5.24 5.24 0 0 0 -2.89-3.93 9.53 9.53 0 0 0 -6.11-.73q-5.82 1-7.62 7.23a3.78 3.78 0 0 1 -.53 1.25 1.8 1.8 0 0 1 -1.21.59l-5.55.9a1.54 1.54 0 0 1 -1.13-.23 1.45 1.45 0 0 1 -.63-1 10.76 10.76 0 0 1 .68-5.14 16.73 16.73 0 0 1 3-5.14 20.5 20.5 0 0 1 5-4.24 18.28 18.28 0 0 1 6.65-2.46zm9.07 38.51a1.89 1.89 0 0 1 2.15 1.54l1 6a1.79 1.79 0 0 1 -.34 1.39 1.77 1.77 0 0 1 -1.21.76l-5.9 1a1.79 1.79 0 0 1 -1.39-.34 1.77 1.77 0 0 1 -.76-1.21l-1-6a1.9 1.9 0 0 1 1.55-2.15z" fill="#dd2828"/><path d="m419.93 83.32a22.67 22.67 0 0 1 6.42-.13 17.48 17.48 0 0 1 5.85 1.75 13.68 13.68 0 0 1 4.51 3.7 12.16 12.16 0 0 1 2.41 5.7 12.33 12.33 0 0 1 -.08 4.91 14.56 14.56 0 0 1 -1.6 4 23.75 23.75 0 0 1 -2.43 3.42l-2.57 3a19.38 19.38 0 0 0 -2.06 2.91 5.6 5.6 0 0 0 -.81 3 2.72 2.72 0 0 1 -.4 1.41 1.62 1.62 0 0 1 -1.15.75l-5.21.85a2 2 0 0 1 -1.43-.33 1.52 1.52 0 0 1 -.72-1.22 12.13 12.13 0 0 1 .36-4.88 16.53 16.53 0 0 1 1.81-4 24.76 24.76 0 0 1 2.54-3.41c.93-1 1.79-2 2.57-3a14.84 14.84 0 0 0 1.87-2.75 4.3 4.3 0 0 0 .46-2.78 5.24 5.24 0 0 0 -2.89-3.93 9.53 9.53 0 0 0 -6.11-.73q-5.82 1-7.62 7.23a3.78 3.78 0 0 1 -.53 1.25 1.8 1.8 0 0 1 -1.21.59l-5.55.9a1.54 1.54 0 0 1 -1.13-.23 1.45 1.45 0 0 1 -.63-1 10.76 10.76 0 0 1 .68-5.14 16.73 16.73 0 0 1 3-5.14 20.5 20.5 0 0 1 5-4.24 18.28 18.28 0 0 1 6.65-2.46zm9.07 38.51a1.89 1.89 0 0 1 2.15 1.54l1 6a1.79 1.79 0 0 1 -.34 1.39 1.77 1.77 0 0 1 -1.21.76l-5.9 1a1.79 1.79 0 0 1 -1.39-.34 1.77 1.77 0 0 1 -.76-1.21l-1-6a1.9 1.9 0 0 1 1.55-2.15z" opacity=".2"/><path d="m469.76 92.81a2.26 2.26 0 0 1 .52 3.1l-4.2 5.91a2.13 2.13 0 0 1 -1.44.89 2.16 2.16 0 0 1 -1.66-.37l-5.77-4.1a2.25 2.25 0 0 1 -.52-3.1l4.2-5.91a2.11 2.11 0 0 1 1.44-.89 2.17 2.17 0 0 1 1.66.37zm24.41-40a26.88 26.88 0 0 1 5.52 5.19 20.65 20.65 0 0 1 3.46 6.36 16.33 16.33 0 0 1 .72 6.87 14.27 14.27 0 0 1 -2.72 6.81 14.63 14.63 0 0 1 -4.15 4.09 17.53 17.53 0 0 1 -4.68 2 29.41 29.41 0 0 1 -4.9.86l-4.68.4a23.1 23.1 0 0 0 -4.16.74 6.75 6.75 0 0 0 -3.2 1.86 3.22 3.22 0 0 1 -1.51.85 1.87 1.87 0 0 1 -1.59-.32l-5.1-3.63a2.26 2.26 0 0 1 -.92-1.46 1.81 1.81 0 0 1 .4-1.64 14.44 14.44 0 0 1 4.34-3.79 21 21 0 0 1 4.88-1.89 29.53 29.53 0 0 1 5-.75c1.65-.1 3.21-.23 4.66-.37a18.87 18.87 0 0 0 3.88-.78 5.16 5.16 0 0 0 2.71-2 6.22 6.22 0 0 0 .84-5.72 11.31 11.31 0 0 0 -4.54-5.7q-5.7-4.05-12.44-.26a4.54 4.54 0 0 1 -1.49.61 2.15 2.15 0 0 1 -1.51-.51l-5.43-3.87a1.8 1.8 0 0 1 -.76-1.14 1.68 1.68 0 0 1 .33-1.38 12.75 12.75 0 0 1 4.87-3.73 20.08 20.08 0 0 1 6.84-1.8 24.36 24.36 0 0 1 7.75.61 21.44 21.44 0 0 1 7.58 3.47z" fill="#dd2828"/><path d="m469.73 92.81a2.26 2.26 0 0 1 .52 3.1l-4.2 5.91a2.13 2.13 0 0 1 -1.44.89 2.17 2.17 0 0 1 -1.66-.37l-5.77-4.1a2.13 2.13 0 0 1 -.89-1.44 2.15 2.15 0 0 1 .37-1.66l4.2-5.91a2.13 2.13 0 0 1 1.44-.89 2.17 2.17 0 0 1 1.66.37zm24.41-40a26.88 26.88 0 0 1 5.52 5.19 20.65 20.65 0 0 1 3.46 6.36 16.33 16.33 0 0 1 .72 6.87 14.27 14.27 0 0 1 -2.72 6.81 14.63 14.63 0 0 1 -4.12 4.09 17.47 17.47 0 0 1 -4.67 2 29.71 29.71 0 0 1 -4.91.86l-4.68.4a23.1 23.1 0 0 0 -4.16.74 6.75 6.75 0 0 0 -3.2 1.86 3.22 3.22 0 0 1 -1.51.85 1.85 1.85 0 0 1 -1.58-.32l-5.11-3.63a2.26 2.26 0 0 1 -.92-1.46 1.81 1.81 0 0 1 .4-1.64 14.35 14.35 0 0 1 4.34-3.79 20.79 20.79 0 0 1 4.87-1.89 29.84 29.84 0 0 1 5-.75c1.66-.1 3.21-.23 4.66-.37a19 19 0 0 0 3.89-.78 5.23 5.23 0 0 0 2.71-2 6.25 6.25 0 0 0 .83-5.72 11.23 11.23 0 0 0 -4.53-5.7q-5.71-4.05-12.45-.26a4.46 4.46 0 0 1 -1.49.61 2.11 2.11 0 0 1 -1.5-.51l-5.44-3.87a1.79 1.79 0 0 1 -.75-1.14 1.71 1.71 0 0 1 .32-1.38 12.71 12.71 0 0 1 4.88-3.73 20 20 0 0 1 6.84-1.8 24.3 24.3 0 0 1 7.74.61 21.36 21.36 0 0 1 7.56 3.47z" fill="#fff" opacity=".6"/><path d="m338.54 248.8h-62.61v-151.69a49.67 49.67 0 0 1 49.67-49.67h5.79a49.67 49.67 0 0 1 49.67 49.67v109.17a42.52 42.52 0 0 1 -42.52 42.52z" fill="#263238"/><path d="m269.85 614a116.48 116.48 0 0 0 -1.85 19c-.22 11.55-2.34 15.66-2.62 25.14-.32 10.84 1.55 14.89 5.95 21s15.94 11.62 20.82 1.33 4.25-17 2.69-27.68c-1.62-11-1.82-17.06-2.75-25.44-.83-7.39-1.81-13-1.81-13z" fill="#263238"/><path d="m302.65 537.19-38.07-.69c.57 25.42 4.61 53.62 5.27 77.47.12 4.49-.12 34.88 1.58 44.11 2.54 13.88 19 12 19.88 3.7s-1.06-43.78-1-47.44c-.15-15.29 7-41.11 10.78-68.56.18-1.35 1.39-7.27 1.56-8.59z" fill="#ffa8a7"/><path d="m351.56 594.19s-1.51-.8-1.82.8c-.37 1.91-.92 5.84-1.71 9-1.1 4.36-2 11.53-1.36 15.08s8.94 8.11 14.31 9.76a43.89 43.89 0 0 1 17.7 10.49c5.31 5 16.79 9.74 24.61 9.68 9.24-.07 15.69-3.08 18.74-8 3.18-5.17-2.78-5.55-13.35-12.41-2.4-1.56-5.13-3.32-8.2-5.33-16.75-10.94-22.88-16.8-27.61-27.74z" fill="#263238"/><path d="m373 587.42c-.28-7.87 5.11-74.62 5.11-74.62l-36.11 16.48c7.74 46.21 9.39 57.11 9.53 64.67a6.53 6.53 0 0 0 -.21 1.94c0 9 10.17 13.81 18.07 19.8 3.12 2.36 12.2 9.34 21.38 13.95 5.74 2.89 17.4 3.15 18.84-.54-9.61-7.35-23.6-18.34-31.25-26.72-3.69-4.01-5.08-7.09-5.36-14.96z" fill="#ffa8a7"/><path d="m280.18 289.24c-13.88 30.48-13.88 54.05-11.58 92.94 2.1 35.67 5.46 67.08 5.46 67.08-.54 6.33-9.34 18.68-10.48 46.66-1.06 26.15 1.81 59.4 1.81 59.4s19.75 10.94 34.35-.1c0 0 14.09-67.29 18.22-100 3.61-28.57 9.87-65.07 9.87-65.07l13.26 64.85s-5 16-6.22 28.19c-1.87 19.26 8.9 57.07 8.9 57.07s20.41 6.09 32.87-5c0 0 4.66-61.48 6.4-84.67 2.33-31.07-2.57-115.16-6.4-159.68z" fill="#455a64"/><path d="m327.83 390.12 5.48-48.87s24.57-3.25 35.69-13.75c0 0-8.36 15.32-28.94 18.3l-7.93 45.47 9 63.77z" fill="#263238"/><path d="m427.3 277.23c1.53-15 1.47-25 1.33-26.88-.53-7.75-1.92-9-12.76-22.76-14.64-18.55-27.13-35.22-40.34-51.81-9.44-11.84-19.35-13.67-29-13.13-6.77.37 6.44 32.92 13.1 52.18l38 40.84a8.17 8.17 0 0 1 1.5 5.58l-2.39 34.75 11.38 15.21s17.22-14.82 19.18-33.98z" fill="#ffa8a7"/><path d="m373 115.58c-.58 25.44-8.83 31.73-13 33.54s-12.12.7-19.88-.58v15.27s8.95 9.37 8.28 16.37-14.06 7.78-24.1.94a76.54 76.54 0 0 1 -14.86-13.42 5.42 5.42 0 0 1 -1.28-3.51v-35.93s-4.25 4.5-11.76-.65-8.15-14.7-3.56-20.12c3.27-3.85 11.58-4.12 15.57 1.86 2.24 4.39 2.55 8.8 5.06 7 6.71-4.82 3.11-15.79 11.21-21.21a57.21 57.21 0 0 1 8.24-3.6c14.44-5 26.94-9.17 30-19 5.72 3.29 10.8 13.03 10.08 43.04z" fill="#ffa8a7"/><circle cx="344.56" cy="134.97" fill="#b16668" r="3.34"/><path d="m342.32 111.72a3.52 3.52 0 1 1 -3.69-3.48 3.57 3.57 0 0 1 3.69 3.48z" fill="#263238"/><path d="m369 112.07a3.25 3.25 0 0 1 -3 3.47 3.07 3.07 0 0 1 -3.36-3.17 3.2 3.2 0 1 1 6.39-.3z" fill="#263238"/><path d="m337.8 120.78a11.47 11.47 0 0 1 -11.46-11.46c0-7.79 8-7.79 11.46-7.79s11.46 0 11.46 7.79a11.47 11.47 0 0 1 -11.46 11.46zm0-17.44c-6.95 0-9.66 1.68-9.66 6a9.66 9.66 0 1 0 19.31 0c0-4.34-2.7-6-9.65-6z" fill="#455a64"/><path d="m366.89 120.78a11.47 11.47 0 0 1 -11.46-11.46c0-7.79 8-7.79 11.46-7.79s11.46 0 11.46 7.79a11.47 11.47 0 0 1 -11.46 11.46zm0-17.44c-6.94 0-9.65 1.68-9.65 6a9.66 9.66 0 1 0 19.31 0c0-4.34-2.71-6-9.66-6z" fill="#455a64"/><path d="m351.04 105.63.56 21.4 11.27-3.49z" fill="#f28f8f"/><path d="m340.16 148.53c-8.19-1.07-25-5.9-27.64-12.56 0 0 .87 4.18 5.9 8.49s21.74 9.17 21.74 9.17z" fill="#f28f8f"/><path d="m340.54 95.24-7.46 4.55a4.6 4.6 0 0 1 1.52-6.17 4.26 4.26 0 0 1 5.94 1.62z" fill="#263238"/><path d="m371 100.31-8.32-2.91a4.24 4.24 0 0 1 5.47-2.79 4.62 4.62 0 0 1 2.85 5.7z" fill="#263238"/><path d="m348.35 110.24a.91.91 0 0 1 -.9-.92c0-1.46 2.9-2.41 5.5-2.41s4.29 1 4.29 2.41a.91.91 0 1 1 -1.81 0 3.69 3.69 0 0 0 -2.48-.6 10.23 10.23 0 0 0 -3.69.62.9.9 0 0 1 -.91.9z" fill="#455a64"/><path d="m327.27 109.47h-.1l-20.17-1.84a10.14 10.14 0 0 0 -3.3-2.14l23.64 2.18a.9.9 0 0 1 -.1 1.8z" fill="#455a64"/><path d="m244.57 130.46c6.59-8.8 11.08-15.45 17.1-23 3.41-4.28 5.59-7.34 8.88-11.74 2.26-3 3.58-5.57 6.09-6.51a21.05 21.05 0 0 0 7.35-5 45.21 45.21 0 0 0 3.48-4.43 66.28 66.28 0 0 1 13.3-13.41c5.31-4 11.2-7 16.64-10.84 3.24-2.28 6.72-6.05 2.77-9.57a9.27 9.27 0 0 0 -4.22-2c-9.58-2.09-17.95 1.21-27.33 3.61a77 77 0 0 0 -11.94 4 20.41 20.41 0 0 0 -5.29 3c-2.42 2.07-3.86 5-5.43 7.78-4.22 7.43-13 14-19.1 19.77-7.22 6.78-13.66 13-21.89 20.49-7.4 6.73-14.65 12.95-21.44 20.3-5.62 6.09-3.57 10.85-2.77 12.5 4.57 9.41 9.7 12.79 15.82 18.62 10.61 10.11 47.14 39.17 59.26 48.76a20 20 0 0 1 5.94 7.76l2.32 5.37c13.81 2.54 23-18.2 11.59-43.17a26.12 26.12 0 0 0 -8.4-10.13c-14.42-10.51-42.73-32.16-42.73-32.16z" fill="#ffa8a7"/><path d="m244.57 130.46a36.41 36.41 0 0 1 -16.88 11.63s8.81 2.24 20.87-8.58z" fill="#f28f8f"/><path d="m423.71 258.84h.05l-2.26-1.94a2.56 2.56 0 0 0 -2.33-.26l-24.46 6.65a9 9 0 0 0 -5.5 5.14l-17.61 50.8a2.32 2.32 0 0 0 .32 2.59l2.33 2a2.56 2.56 0 0 0 2.35.28l24.47-6.66a9 9 0 0 0 5.49-5.14l17.61-50.8c.42-1.23.2-2.17-.46-2.66z" fill="#455a64"/><path d="m373.87 321.21 17.6-50.8a9 9 0 0 1 5.5-5.14l24.47-6.65c2.27-.62 3.48.68 2.71 2.9l-17.61 50.8a9 9 0 0 1 -5.49 5.14l-24.47 6.66c-2.27.61-3.48-.69-2.71-2.91z" fill="#dd2828"/><path d="m394.31 266.68a8.79 8.79 0 0 0 -2.84 3.74l-17.61 50.78a2.44 2.44 0 0 0 .24 2.55l-2.19-1.88a2.31 2.31 0 0 1 -.33-2.59l17.61-50.81a8.61 8.61 0 0 1 2.62-3.53z" fill="#37474f"/><path d="m417 282c-1.73 5.18-7.88 8.63-18 11s-15.71 13.13-14.07 16.39 18 6.3 24.49 5.37 13.11-10.38 15.08-13.3 4.28-23.33 2.19-26.13-6.52-2.37-6.52-2.37z" fill="#f28f8f"/><path d="m261.84 143.58-21.16 30.95s41.46 32 44.53 47.21 20.68-11.2 20.68-11.2v-30.83l-12.72-12.83s-26.05-21.54-31.33-23.3z" fill="#dd2828"/><path d="m415.14 225-27.27 22.12-10.27-13.53-31.11-70.94s19.15-5.42 32.69 17.74z" fill="#dd2828"/><path d="m309.91 163.7c-7.34.51-20.7 1.68-20.7 1.68-7.71 4.31-9.66 7.83-11.09 18.07-.61 4.35 2.94 16 6 32.48l5.78 30.62-.62 15.18c-3 9.26-9.8 20.78-15.78 37.75 29.42 16.42 54.09 17 76.47 14.16 17.07-2.19 26.1-6.32 29.11-10.4-.63-16.77-1.82-27.12-2.11-44.64-.12-7.36.32-14.78.61-23.25 11.45-9.41 11.58-25 5.33-35.16-14.51-23.48-28.61-38.27-38-37.51z" fill="#dd2828"/><path d="m347.39 231.76s-13.44 10.43-28.78 5-17.61-18.85-17.61-18.85-1.63 17.53 17.72 23.51c18.7 5.77 28.67-9.66 28.67-9.66z" opacity=".1"/><path d="m355 225.69s9.51 10.43 20.35 5 12.43-18.84 12.43-18.84 1.15 17.53-12.53 23.51c-13.25 5.76-20.25-9.67-20.25-9.67z" opacity=".1"/></svg>