<svg viewBox="0 0 160.34 160.34" xmlns="http://www.w3.org/2000/svg"><circle cx="80.17" cy="80.17" fill="#bc0000" r="80.17"/><g fill="#fff"><path d="m83.34 115.38q-15.11 0-30.22 0c-9.13 0-14.63-5.52-14.64-14.63q0-19.19 0-38.38c0-8.59 5.4-14.12 14-14.29 4.07-.08 8.15-.06 12.23 0 3.3.05 5 1.71 5 4.55-.07 2.64-1.89 4.2-5 4.23-4 0-8 0-12 0-3.58 0-5.41 1.7-5.42 5.22q-.07 19.66 0 39.34c0 3.33 1.79 5 5.08 5q31.07 0 62.13 0c3.29 0 5.08-1.72 5.09-5q.09-19.8 0-39.58c0-3.26-1.89-5-5.16-5-4.08 0-8.16 0-12.23 0-3.26 0-5.11-1.69-5.07-4.45s1.78-4.32 5-4.32c4.87 0 9.77-.16 14.61.24a12.75 12.75 0 0 1 11.57 12.59q.15 20.74 0 41.5c-.06 7.37-6.06 12.9-13.86 13-10.45.03-20.79-.02-31.11-.02z"/><path d="m78.93 72.51v-2.43c0-10.06 0-20.13 0-30.2 0-4 3-6.34 6.14-4.92 2.22 1 2.68 2.95 2.67 5.17q0 15 0 30v2.47l.69.38c1.61-1.72 3.17-3.49 4.85-5.15 2.16-2.15 4.71-2.31 6.57-.53s1.83 4.46-.42 6.74q-6.23 6.3-12.53 12.54c-2.35 2.32-4.77 2.32-7.12 0q-6.39-6.31-12.71-12.72c-2-2.08-2.16-4.54-.42-6.39s4.41-1.84 6.58.19c1.74 1.64 3.44 3.32 5.17 5 .03.01.14-.05.53-.15z"/></g></svg>