<svg viewBox="0 0 160.34 160.34" xmlns="http://www.w3.org/2000/svg"><circle cx="80.17" cy="80.17" fill="#bc0000" r="80.17"/><g fill="#fff"><path d="m83.51 57.52c.41 5.66-1.06 11.78-3.65 17.7-1.22 2.78-.55 4.93 1.73 6s4.21.08 5.59-2.76a9.29 9.29 0 0 0 .62-1.41c1.22-3.78 2.42-7.57 3.75-11.74.94 1.22 1.87 2.36 2.73 3.56 2 2.81 4 3.52 6.15 2.11s2.46-3.91.37-6.69c-2.58-3.42-5.42-6.65-8.19-10l5.55-2.71c12.52 8.86 19.66 21 21.79 36.14a67.72 67.72 0 0 1 .65 10.16c-.1 7.82-3.74 13.75-10.73 17.07-4.49 2.13-9.45 3.28-14.7 5 0-5.92 0-11 0-16.18 0-8.79-3.91-13.36-12.59-15.14a29.53 29.53 0 0 0 -17.76 1.8v-9c0-7.26-2.53-10.92-9.37-13.52-1.25-.47-2.54-.81-4.09-1.29a47.62 47.62 0 0 1 13.2-14.3 3.08 3.08 0 0 1 2.24 0c5.36 1.68 10.69 3.35 16.71 5.2z"/><path d="m81.27 48.09c-1.48-.2-3.1-.42-4.72-.66a9.09 9.09 0 0 1 -7.46-5.57 97.59 97.59 0 0 0 -5.34-9.36c-1.25-2.06-.87-3.6 1.35-4.4a48.69 48.69 0 0 1 33.47-.05c2.16.76 2.78 2.23 1.52 4.36-2.26 3.79-4 8-6.81 11.32-1.62 2-4.7 2.84-7.27 3.86-1.37.54-3.01.35-4.74.5z"/><path d="m45.78 73.21c2.88.64 5.3 1 7.63 1.73a5.31 5.31 0 0 1 4.23 5.62c0 3.22-1.63 4.72-4.25 5.63a20.7 20.7 0 0 1 -16.17-.66c-2.13-1-2.82-2.68-2.81-5s.65-4.18 2.85-4.94c2.87-.99 5.85-1.65 8.52-2.38z"/><path d="m76.31 109.48c-2.6-.59-5.15-1-7.56-1.77a5.26 5.26 0 0 1 -4-5.49c0-3 1.55-4.58 4-5.52a21.1 21.1 0 0 1 15.36 0c2.47.93 3.94 2.5 3.94 5.54a5.21 5.21 0 0 1 -4 5.5c-2.46.79-5.05 1.16-7.74 1.74z"/><path d="m57.22 108.14c1.06 7.18-.32 9.28-7.21 10.24a31 31 0 0 1 -8.87-.12c-5.91-.9-7.17-3.05-6.43-10.12a29.23 29.23 0 0 0 22.51 0z"/><path d="m87.73 114c.74 7.62-1 9.89-8.21 10.54a30.2 30.2 0 0 1 -7.66-.15c-6-1-7.32-3-6.88-10.32 7.54 2.93 15.08 3.25 22.75-.07z"/><path d="m34.69 92.37a28.41 28.41 0 0 0 22.46 0c1.14 6.89.56 8.56-6.6 10.24a24.14 24.14 0 0 1 -8.89 0c-6.34-.87-7.66-3.03-6.97-10.24z"/></g></svg>