<svg viewBox="0 0 160.34 160.34" xmlns="http://www.w3.org/2000/svg"><circle cx="80.17" cy="80.17" fill="#bc0000" r="80.17"/><path d="m47.74 59.8c1.39-1.88 2.71-3.81 4.19-5.61 1.17-1.42 2.81-1.94 4.3-.68s1.2 3-.11 4.28c-3.7 3.75-7.44 7.45-11.18 11.15-1.48 1.47-3 1.09-4.3-.19-3.64-3.55-7.2-7.16-10.79-10.75-1.31-1.31-1.87-3-.5-4.32 1.59-1.58 3.4-.9 4.7.67 1.47 1.78 2.76 3.7 4.13 5.56l1.71-1.07c0-5.35.08-10.69 0-16-.07-3.7 1.52-5.23 5.24-5.16 6.89.14 13.79.05 20.68 0 2.1 0 4.34.15 4.33 2.86s-2.4 2.7-4.41 2.71c-5.44 0-10.89.1-16.33 0-2.55-.06-3.62.83-3.53 3.45.14 4 0 8 0 11.93z" fill="#fcfdfe"/><path d="m111.17 95.81c-1.47 2-2.84 4.11-4.43 6-1.14 1.36-2.77 2-4.3.63s-1.23-3 .06-4.33c3.67-3.76 7.42-7.46 11.18-11.14a2.76 2.76 0 0 1 4.3 0c3.73 3.71 7.48 7.4 11.18 11.14 1.32 1.34 1.67 2.88.11 4.26s-2.94.64-4.3-.57c-1.85-1.64-3.18-3.91-6.44-5.31 0 5.77-.17 11.11.06 16.43.17 4.07-1.51 5.48-5.46 5.36-6.52-.19-13.06 0-19.59-.06-2.19 0-4.83.15-4.8-3 0-3.31 2.92-2.61 4.94-2.64 5.26-.11 10.53-.12 15.79 0 2.52 0 3.63-.76 3.51-3.43-.16-4 0-8 0-12z" fill="#fdfdfe"/><text fill="#fff" font-family="MyriadPro-Regular, Myriad Pro" font-size="21.85" letter-spacing=".01em" transform="translate(41.51 105.21)">R<tspan letter-spacing="0em" x="11.98" y="0">p</tspan></text><circle cx="53.72" cy="98.79" fill="none" r="18.62" stroke="#fff" stroke-miterlimit="10" stroke-width="3"/><text fill="#fff" font-family="MyriadPro-Regular, Myriad Pro" font-size="21.85" letter-spacing=".01em" transform="translate(94.42 59.86)">R<tspan letter-spacing="0em" x="11.98" y="0">p</tspan></text><circle cx="106.62" cy="53.45" fill="none" r="18.62" stroke="#fff" stroke-miterlimit="10" stroke-width="3"/></svg>