<svg viewBox="0 0 160.34 160.34" xmlns="http://www.w3.org/2000/svg"><circle cx="80.17" cy="80.17" fill="#bc0000" r="80.17"/><g fill="#f9f9f9"><path d="m36.13 89.82c15.92-13.66 34-14 52.67-9.71 1.65.38 3.57 3.27 3.83 5.19.39 3-2.1 4.15-5 4-4.82-.22-9.66-.51-14.48-.47-1.1 0-2.19 1.22-3.29 1.88 1 .69 1.93 1.9 3 2 10.81.88 21.46 1.92 30.62-6.45 4.85-4.43 11-7.45 16.61-11 4.19-2.69 8.33-2.37 10.65.91 2.93 4.14.23 6.72-2.79 9.18-7.36 6-14.61 12.12-22 18-8 6.3-17.56 8.19-27.25 8.29-8.59.09-17.2-1.36-25.79-2.15-.66-.06-1.33-.53-1.94-.43-8.86 1.44-11.1-4.22-12.37-11.23a68.21 68.21 0 0 0 -2.47-8.01z"/><path d="m86.69 39.36c-2.61-2.89-4.84-5.11-6.73-7.59-.78-1-.82-2.6-1.19-3.92 1.24-.19 2.48-.44 3.72-.57 3.36-.33 6.72-.67 10.08-.91 1.41-.1 3.37-.49 4.11.24s.63 2.83.17 4.06c-1.08 2.93-2.6 5.7-4 8.74 2.81 2.64 5.92 5.15 8.52 8.1 6.73 7.65 8 16.75 3.52 22.82s-16.47 8.37-24.8 4.51c-7.61-3.52-11.19-11.73-7.54-19.67 2-4.36 5.75-8 8.93-11.74 1.19-1.43 3.03-2.43 5.21-4.07z"/><path d="m39.39 111.64-9.15 2.73c-2.36-7.88-4.58-15.27-6.94-23.12l9.16-2.76c2.34 7.82 4.54 15.21 6.93 23.15z"/></g><path d="m77.72 51.16a30.77 30.77 0 0 1 4.74-.33c2.34 0 4 .36 5.1 1.24a4 4 0 0 1 1.44 3.3 4.19 4.19 0 0 1 -2.78 3.88v.07a4 4 0 0 1 2.1 3 45.6 45.6 0 0 0 1.29 4.44h-3.61a19.81 19.81 0 0 1 -1.13-3.76c-.42-2-1.1-2.5-2.55-2.53h-1.07v6.2h-3.53zm3.53 6.78h1.4c1.78 0 2.83-.89 2.83-2.27s-1-2.17-2.62-2.19a9.83 9.83 0 0 0 -1.61.11z" fill="#bc0000"/><path d="m91.7 59.11c0-1.5 0-2.78-.1-3.83h3.09l.16 1.59h.05a4.38 4.38 0 0 1 3.81-1.87c2.5 0 4.74 2.17 4.74 5.82 0 4.16-2.64 6.13-5.19 6.13a3.56 3.56 0 0 1 -3-1.31v5.68h-3.56zm3.55 2.69a3.36 3.36 0 0 0 .07.75 2.14 2.14 0 0 0 2.08 1.68c1.54 0 2.45-1.29 2.45-3.23s-.81-3.2-2.4-3.2a2.23 2.23 0 0 0 -2.13 1.8 2.59 2.59 0 0 0 -.07.63z" fill="#bc0000"/></svg>