<svg viewBox="0 0 160.34 160.34" xmlns="http://www.w3.org/2000/svg"><circle cx="80.17" cy="80.17" fill="#bc0000" r="80.17"/><g fill="#fff"><path d="m65 67.09a47.68 47.68 0 0 1 7.18-.5c3.54 0 6 .53 7.72 1.88a6 6 0 0 1 2.19 5 6.34 6.34 0 0 1 -4.21 5.88v.1c1.67.67 2.59 2.27 3.19 4.46.74 2.69 1.49 5.81 2 6.73h-5.55a30.28 30.28 0 0 1 -1.66-5.56c-.64-3-1.66-3.79-3.86-3.82h-1.63v9.38h-5.37zm5.34 10.26h2.16c2.69 0 4.28-1.34 4.28-3.43s-1.49-3.29-4-3.33a13.55 13.55 0 0 0 -2.45.18z"/><path d="m86.19 79.12c0-2.26-.07-4.21-.14-5.8h4.67l.28 2.41a6.62 6.62 0 0 1 5.77-2.8c3.79 0 7.18 3.29 7.18 8.81.05 6.26-3.95 9.26-7.81 9.26a5.37 5.37 0 0 1 -4.5-2h-.07v8.6h-5.38zm5.38 4.07a5.44 5.44 0 0 0 .11 1.14 3.24 3.24 0 0 0 3.15 2.54c2.33 0 3.71-1.94 3.71-4.88 0-2.76-1.24-4.85-3.64-4.85a3.37 3.37 0 0 0 -3.22 2.73 4.12 4.12 0 0 0 -.11.95z"/><path d="m131.74 110.51h-108.65v-49.83h108.65zm-106.81-1.84h105v-46.16h-105z"/><path d="m140.68 103.34h-108.68v-49.84h108.68zm-106.82-1.84h105v-46.16h-105z"/></g></svg>