<svg viewBox="0 0 99.09 99.09" xmlns="http://www.w3.org/2000/svg"><circle cx="49.54" cy="49.54" fill="#fff" r="49.54"/><g fill="#ec1c24"><path d="m49.27 51.78a16.65 16.65 0 0 1 -16.09-16.63 16.65 16.65 0 0 1 16.72-16 16.73 16.73 0 0 1 16 16.54 16.63 16.63 0 0 1 -16.63 16.09zm.24-3a13.09 13.09 0 0 0 13.42-13.3 13.39 13.39 0 1 0 -26.78-.07 13.11 13.11 0 0 0 13.36 13.4z"/><path d="m49.44 59c-5.2 0-10.4 0-15.6 0a10.12 10.12 0 0 0 -10.59 9.5c-.16 1.75.17 3.55 0 5.31-.05.7-.73 1.35-1.13 2-.58-.55-1.56-1-1.67-1.67-1.68-10.04 3.39-18.33 14.72-18.41 9.71-.07 19.43-.13 29.14.07a17.81 17.81 0 0 1 7.46 1.8c7 3.53 7.85 10.88 6.77 16.76-.1.57-1.06 1-1.62 1.47-.4-.67-1.08-1.31-1.15-2-.23-2.5.13-5.1-.44-7.5-1.09-4.61-5.16-7.33-9.88-7.33-5.34 0-10.67 0-16.01 0z"/></g></svg>