<svg viewBox="0 0 160.34 160.34" xmlns="http://www.w3.org/2000/svg"><circle cx="80.17" cy="80.17" fill="#bc0000" r="80.17"/><path d="m72.45 122.61c-3.17-3.71-4.74-7.54-4.59-12 .09-2.74.78-3.52 3.54-3.64a15.29 15.29 0 0 1 10.1 3c.51.38 1 .79 1.79 1.4v-12.37c-11.07-1.18-19.93-6.25-26-15.78a31.63 31.63 0 0 1 -4.7-21.68 33.17 33.17 0 0 1 65.83.1c2.33 18.46-10.91 35.43-30.42 37.36v8.69c3.65-3.95 7.49-6.72 12.31-7.58a55.21 55.21 0 0 1 7.84-.46c1.59-.06 2.28.84 2.58 2.39 1.48 7.73-2.85 17.1-10.11 21.66a21.41 21.41 0 0 1 -11.62 3.43c-9.39 0-18.77 0-28.16 0-1.55 0-3.1 0-3.16-2.11s1.39-2.44 3.12-2.42c3.71.04 7.44.01 11.65.01z" fill="#fff"/><path d="m88.09 122.83c10.06.73 19.46-8.94 18-18.34-9.34-1.57-19.9 8.21-18 18.34z"/><path d="m82.83 122.53c1.16-5.5-6.41-11.9-10.6-10.43a10.55 10.55 0 0 0 10.6 10.43z"/><path d="m51.26 127.81c-.56-.85-1.5-1.66-1.61-2.56a1.88 1.88 0 0 1 2.35-2.14 3.18 3.18 0 0 1 1.94 2.29c.08.75-1 1.63-1.62 2.45z" fill="#fff"/><g fill="#bc0000"><path d="m88.09 122.83c-1.9-10.13 8.66-19.91 18-18.34 1.46 9.4-7.94 19.07-18 18.34z"/><path d="m82.83 122.53a10.55 10.55 0 0 1 -10.6-10.43c4.19-1.47 11.77 4.9 10.6 10.43z"/><path d="m69.16 50.47a46 46 0 0 1 6.9-.47c3.4 0 5.77.51 7.4 1.8a5.8 5.8 0 0 1 2.11 4.79 6.08 6.08 0 0 1 -4 5.64v.1c1.59.65 2.48 2.17 3.06 4.28.71 2.58 1.42 5.57 1.86 6.46h-5.3a29.46 29.46 0 0 1 -1.59-5.34c-.6-2.85-1.6-3.63-3.75-3.67h-1.56v9h-5.13zm5.13 9.86h2c2.58 0 4.11-1.3 4.11-3.3s-1.43-3.16-3.8-3.19a12.75 12.75 0 0 0 -2.35.17z"/><path d="m89.47 62c0-2.17-.06-4-.13-5.57h4.48l.24 2.31h.07a6.39 6.39 0 0 1 5.54-2.68c3.63 0 6.89 3.16 6.89 8.46 0 6-3.83 8.9-7.54 8.9a5.16 5.16 0 0 1 -4.31-1.9h-.07v8.25h-5.17zm5.17 3.91a5.06 5.06 0 0 0 .1 1.09 3.12 3.12 0 0 0 3 2.44c2.25 0 3.57-1.86 3.57-4.68 0-2.65-1.19-4.66-3.5-4.66a3.25 3.25 0 0 0 -3.09 2.62 3.85 3.85 0 0 0 -.1.91z"/></g></svg>