<svg viewBox="0 0 160.34 160.34" xmlns="http://www.w3.org/2000/svg"><circle cx="80.17" cy="80.17" fill="#bc0000" r="80.17"/><g fill="#fffef9"><path d="m79.58 52.73c-.09.48-.15.88-.24 1.28a4.73 4.73 0 0 1 -4.7 3.76c-3.55 0-7.1-.05-10.65 0a8.08 8.08 0 0 0 -2.85.67c-1.53.64-3 1.41-4.47 2.2a22.41 22.41 0 0 1 -10.88 2.61h-4.17v2a1.21 1.21 0 0 1 -1.33 1.3q-5.22 0-10.43 0a1.2 1.2 0 0 1 -1.3-1.33c0-1 0-2 0-3v-22.68c0-1.89.23-2.11 2.11-2.11h9c1.73 0 2 .26 2 2v1.41c2.23-.11 4.28.15 6.36-.62a90.06 90.06 0 0 1 15.57-4.56 20 20 0 0 1 13.16 1.76c3 1.58 5.92 3.35 8.87 5 5 2.81 9.89 5.64 14.85 8.42a5.3 5.3 0 0 1 2.15 6.82 4.6 4.6 0 0 1 -6.35 2.24l-15.56-6.7c-.36-.2-.72-.31-1.14-.47zm-37.88 8.08h2.47c3.49-.08 7-.21 10.18-1.81 2.12-1.06 4.22-2.13 6.38-3.11a6.13 6.13 0 0 1 2.42-.57c3.81-.06 7.62 0 11.43 0a2.3 2.3 0 0 0 2.36-2.32c0-1.27-.77-1.94-2.24-1.94-4.44 0-8.88 0-13.32 0a5 5 0 0 1 -5.09-4.06 1.21 1.21 0 0 1 1-1.51 1.18 1.18 0 0 1 1.47.85c.69 1.84 1.22 2.2 3.19 2.2h12.77a8.57 8.57 0 0 1 3.08.64c6.5 2.76 13 5.59 19.44 8.39 1.43.61 2.48.31 3.12-.87a2.75 2.75 0 0 0 -1.36-3.7q-8-4.52-15.88-9.08c-2.38-1.35-4.73-2.76-7.15-4a18.44 18.44 0 0 0 -11.43-1.76 68.17 68.17 0 0 0 -13.54 3.65 19.59 19.59 0 0 1 -8.74 1.51 3.48 3.48 0 0 0 -.58.07zm-2.7 3.29v-24.1h-7.9v24.1z"/><path d="m80.82 103.18c.18-1.77.66-3.28 2.18-4.18a5.72 5.72 0 0 1 2.66-.86c3.66-.1 7.33 0 11-.07a6 6 0 0 0 2.32-.53c1.65-.73 3.28-1.54 4.87-2.4a22.19 22.19 0 0 1 10.56-2.54h4.37c0-.77 0-1.42 0-2.07a1.21 1.21 0 0 1 1.34-1.3h10.28c1 0 1.4.55 1.41 1.47v4q0 10.83 0 21.65c0 1.87-.23 2.1-2.11 2.1h-9c-1.73 0-2-.26-2-2 0-.43 0-.86 0-1.38-2.31 0-4.43-.13-6.58.67a87.39 87.39 0 0 1 -15.4 4.49 20.07 20.07 0 0 1 -13.26-1.81c-2.81-1.48-5.53-3.13-8.29-4.7-5.11-2.9-10.2-5.83-15.33-8.7a5.31 5.31 0 0 1 -2.14-6.82 4.6 4.6 0 0 1 6.39-2.2l15.56 6.74zm37.83-8.11c-4.39.05-8.7-.13-12.7 1.85-2.16 1.07-4.3 2.16-6.48 3.17a5.3 5.3 0 0 1 -2.11.49c-3.84 0-7.69 0-11.54 0a2.3 2.3 0 0 0 -2.41 2.42c0 1.26.79 1.88 2.31 1.88h13.32a4.94 4.94 0 0 1 5 4.12 1.19 1.19 0 0 1 -.92 1.44 1.18 1.18 0 0 1 -1.49-.82c-.74-1.89-1.25-2.24-3.28-2.24-4.44 0-8.88 0-13.32 0a4.89 4.89 0 0 1 -1.92-.4q-10-4.31-20-8.66a2.23 2.23 0 0 0 -3.34 1.82 2.8 2.8 0 0 0 1.6 2.86q6.83 3.83 13.61 7.7c3.12 1.77 6.17 3.65 9.34 5.33a16.6 16.6 0 0 0 11.52 1.72c4.53-1 9-2.22 13.46-3.64 2.87-.92 5.68-1.82 8.74-1.5a3.88 3.88 0 0 0 .61-.06zm10.54 20.83v-24.11h-7.87v24.11z"/><path d="m98.76 78.09a18.59 18.59 0 1 1 -18.44-18.73 18.62 18.62 0 0 1 18.44 18.73zm-33.84-.18a15.26 15.26 0 1 0 15.3-15.22 15.31 15.31 0 0 0 -15.3 15.22z"/><text font-family="MyriadPro-Bold, Myriad Pro" font-size="15.85" font-weight="700" transform="translate(70.66 81.13)"><tspan letter-spacing=".01em">R</tspan><tspan x="9.56" y="0">p</tspan></text></g></svg>